Pontano Sans-Bold.ufo
<glyph name="exclam" format="1">
  <advance width="428"/>
  <unicode hex="0021"/>
  <outline>
    <contour>
      <point x="117" y="0" type="line"/>
      <point x="334" y="0" type="line"/>
      <point x="334" y="217" type="line"/>
      <point x="117" y="217" type="line"/>
    </contour>
    <contour>
      <point x="181" y="349" type="line"/>
      <point x="267" y="349" type="line"/>
      <point x="349" y="1464" type="line"/>
      <point x="87" y="1464" type="line"/>
    </contour>
  </outline>
</glyph>
<glyph name="quotedbl" format="1">
  <advance width="510"/>
  <unicode hex="0022"/>
  <outline>
    <contour>
      <point x="73" y="1000" type="line"/>
      <point x="146" y="1000" type="line"/>
      <point x="207" y="1464" type="line"/>
      <point x="11" y="1464" type="line"/>
    </contour>
    <contour>
      <point x="365" y="1000" type="line"/>
      <point x="438" y="1000" type="line"/>
      <point x="499" y="1464" type="line"/>
      <point x="303" y="1464" type="line"/>
    </contour>
  </outline>
</glyph>
<glyph name="numbersign" format="1">
  <advance width="1221"/>
  <unicode hex="0023"/>
  <outline>
    <contour>
      <point x="124" y="-1" type="line"/>
      <point x="324" y="0" type="line"/>
      <point x="432" y="526" type="line"/>
      <point x="666" y="526" type="line"/>
      <point x="560" y="-1" type="line"/>
      <point x="760" y="0" type="line"/>
      <point x="868" y="526" type="line"/>
      <point x="1072" y="526" type="line"/>
      <point x="1113" y="672" type="line"/>
      <point x="897" y="672" type="line"/>
      <point x="941" y="877" type="line"/>
      <point x="1142" y="877" type="line"/>
      <point x="1180" y="1023" type="line"/>
      <point x="970" y="1023" type="line"/>
      <point x="1061" y="1464" type="line"/>
      <point x="854" y="1464" type="line"/>
      <point x="765" y="1023" type="line"/>
      <point x="535" y="1023" type="line"/>
      <point x="626" y="1464" type="line"/>
      <point x="420" y="1464" type="line"/>
      <point x="331" y="1023" type="line"/>
      <point x="154" y="1023" type="line"/>
      <point x="116" y="877" type="line"/>
      <point x="302" y="877" type="line"/>
      <point x="259" y="672" type="line"/>
      <point x="87" y="672" type="line"/>
      <point x="46" y="526" type="line"/>
      <point x="230" y="526" type="line"/>
    </contour>
    <contour>
      <point x="461" y="672" type="line"/>
      <point x="506" y="877" type="line"/>
      <point x="736" y="877" type="line"/>
      <point x="695" y="672" type="line"/>
    </contour>
  </outline>
</glyph>
<glyph name="percent" format="1">
  <advance width="1677"/>
  <unicode hex="0025"/>
  <outline>
    <contour>
      <point x="1279" y="115" type="curve" smooth="yes"/>
      <point x="1179" y="115"/>
      <point x="1127" y="207"/>
      <point x="1127" y="325" type="curve" smooth="yes"/>
      <point x="1127" y="436"/>
      <point x="1184" y="531"/>
      <point x="1279" y="531" type="curve" smooth="yes"/>
      <point x="1377" y="531"/>
      <point x="1430" y="440"/>
      <point x="1430" y="324" type="curve" smooth="yes"/>
      <point x="1430" y="207"/>
      <point x="1376" y="115"/>
    </contour>
    <contour>
      <point x="1280" y="-24" type="curve" smooth="yes"/>
      <point x="1481" y="-24"/>
      <point x="1593" y="148"/>
      <point x="1593" y="322" type="curve" smooth="yes"/>
      <point x="1593" y="494"/>
      <point x="1481" y="668"/>
      <point x="1280" y="668" type="curve" smooth="yes"/>
      <point x="1077" y="668"/>
      <point x="963" y="493"/>
      <point x="963" y="320" type="curve" smooth="yes"/>
      <point x="963" y="147"/>
      <point x="1075" y="-24"/>
    </contour>
    <contour>
      <point x="356" y="913" type="curve" smooth="yes"/>
      <point x="256" y="913"/>
      <point x="204" y="1005"/>
      <point x="204" y="1123" type="curve" smooth="yes"/>
      <point x="204" y="1234"/>
      <point x="261" y="1329"/>
      <point x="356" y="1329" type="curve" smooth="yes"/>
      <point x="454" y="1329"/>
      <point x="507" y="1238"/>
      <point x="507" y="1122" type="curve" smooth="yes"/>
      <point x="507" y="1005"/>
      <point x="453" y="913"/>
    </contour>
    <contour>
      <point x="357" y="774" type="curve" smooth="yes"/>
      <point x="558" y="774"/>
      <point x="670" y="946"/>
      <point x="670" y="1120" type="curve" smooth="yes"/>
      <point x="670" y="1292"/>
      <point x="558" y="1466"/>
      <point x="357" y="1466" type="curve" smooth="yes"/>
      <point x="154" y="1466"/>
      <point x="40" y="1291"/>
      <point x="40" y="1118" type="curve" smooth="yes"/>
      <point x="40" y="945"/>
      <point x="152" y="774"/>
    </contour>
    <contour>
      <point x="281" y="-32" type="line"/>
      <point x="1516" y="1398" type="line"/>
      <point x="1405" y="1502" type="line"/>
      <point x="169" y="73" type="line"/>
    </contour>
  </outline>
</glyph>
<glyph name="quotesingle" format="1">
  <advance width="280"/>
  <unicode hex="0027"/>
  <outline>
    <contour>
      <point x="122" y="1000" type="line"/>
      <point x="195" y="1000" type="line"/>
      <point x="256" y="1464" type="line"/>
      <point x="60" y="1464" type="line"/>
    </contour>
  </outline>
</glyph>
<glyph name="parenleft" format="1">
  <advance width="602"/>
  <unicode hex="0028"/>
  <outline>
    <contour>
      <point x="-5" y="703" type="curve"/>
      <point x="-5" y="164"/>
      <point x="232" y="-112"/>
      <point x="523" y="-181" type="curve"/>
      <point x="564" y="-54" type="line"/>
      <point x="338" y="19"/>
      <point x="222" y="289"/>
      <point x="222" y="703" type="curve"/>
      <point x="222" y="1117"/>
      <point x="338" y="1387"/>
      <point x="564" y="1460" type="curve"/>
      <point x="523" y="1587" type="line"/>
      <point x="232" y="1518"/>
      <point x="-5" y="1242"/>
    </contour>
  </outline>
</glyph>
<glyph name="parenright" format="1">
  <advance width="602"/>
  <unicode hex="0029"/>
  <outline>
    <contour>
      <point x="36" y="-181" type="line"/>
      <point x="327" y="-112"/>
      <point x="564" y="164"/>
      <point x="564" y="703" type="curve"/>
      <point x="564" y="1242"/>
      <point x="327" y="1518"/>
      <point x="36" y="1587" type="curve"/>
      <point x="-5" y="1460" type="line"/>
      <point x="221" y="1387"/>
      <point x="337" y="1117"/>
      <point x="337" y="703" type="curve"/>
      <point x="337" y="289"/>
      <point x="221" y="19"/>
      <point x="-5" y="-54" type="curve"/>
    </contour>
  </outline>
</glyph>
<glyph name="asterisk" format="1">
  <advance width="826"/>
  <unicode hex="002A"/>
  <outline>
    <contour>
      <point x="474" y="753" type="line"/>
      <point x="361" y="753" type="line"/>
      <point x="367" y="1031" type="line"/>
      <point x="112" y="875" type="line"/>
      <point x="55" y="983" type="line"/>
      <point x="320" y="1113" type="line"/>
      <point x="54" y="1243" type="line"/>
      <point x="111" y="1351" type="line"/>
      <point x="367" y="1199" type="line"/>
      <point x="361" y="1474" type="line"/>
      <point x="474" y="1474" type="line"/>
      <point x="467" y="1200" type="line"/>
      <point x="722" y="1352" type="line"/>
      <point x="779" y="1244" type="line"/>
      <point x="514" y="1114" type="line"/>
      <point x="780" y="984" type="line"/>
      <point x="723" y="876" type="line"/>
      <point x="467" y="1032" type="line"/>
    </contour>
  </outline>
</glyph>
<glyph name="comma" format="1">
  <advance width="445"/>
  <unicode hex="002C"/>
  <outline>
    <contour>
      <point x="182" y="-295" type="line"/>
      <point x="324" y="-214"/>
      <point x="355" y="-103"/>
      <point x="355" y="95" type="curve" smooth="yes"/>
      <point x="355" y="240" type="line"/>
      <point x="85" y="240" type="line"/>
      <point x="85" y="0" type="line"/>
      <point x="204" y="-13" type="line"/>
      <point x="204" y="-92"/>
      <point x="144" y="-172"/>
      <point x="111" y="-203" type="curve"/>
    </contour>
  </outline>
</glyph>
<glyph name="hyphen" format="1">
  <advance width="724"/>
  <unicode hex="002D"/>
  <outline>
    <contour>
      <point x="100" y="360" type="line"/>
      <point x="600" y="360" type="line"/>
      <point x="600" y="527" type="line"/>
      <point x="100" y="527" type="line"/>
    </contour>
  </outline>
</glyph>
<glyph name="period" format="1">
  <advance width="434"/>
  <unicode hex="002E"/>
  <outline>
    <contour>
      <point x="85" y="240" type="line"/>
      <point x="345" y="240" type="line"/>
      <point x="345" y="0" type="line"/>
      <point x="85" y="0" type="line"/>
    </contour>
  </outline>
</glyph>
<glyph name="one" format="1">
  <advance width="924"/>
  <unicode hex="0031"/>
  <outline>
    <contour>
      <point x="423" y="0" type="line"/>
      <point x="643" y="0" type="line"/>
      <point x="643" y="1464" type="line"/>
      <point x="452" y="1464" type="line"/>
      <point x="132" y="1333" type="line"/>
      <point x="197" y="1158" type="line"/>
      <point x="423" y="1258" type="line"/>
    </contour>
  </outline>
</glyph>
<glyph name="two" format="1">
  <advance width="1246"/>
  <unicode hex="0032"/>
  <outline>
    <contour>
      <point x="303" y="1064" type="line"/>
      <point x="387" y="1231"/>
      <point x="479" y="1314"/>
      <point x="628" y="1314" type="curve" smooth="yes"/>
      <point x="773" y="1314"/>
      <point x="857" y="1203"/>
      <point x="857" y="1049" type="curve" smooth="yes"/>
      <point x="857" y="592"/>
      <point x="159" y="551"/>
      <point x="154" y="0" type="curve"/>
      <point x="1080" y="0" type="line"/>
      <point x="1080" y="175" type="line"/>
      <point x="404" y="175" type="line"/>
      <point x="602" y="482"/>
      <point x="1090" y="607"/>
      <point x="1078" y="1044" type="curve" smooth="yes"/>
      <point x="1070" y="1346"/>
      <point x="883" y="1489"/>
      <point x="616" y="1489" type="curve" smooth="yes"/>
      <point x="391" y="1489"/>
      <point x="228" y="1396"/>
      <point x="110" y="1141" type="curve"/>
    </contour>
  </outline>
</glyph>
<glyph name="three" format="1">
  <advance width="1246"/>
  <unicode hex="0033"/>
  <outline>
    <contour>
      <point x="1015" y="1156" type="curve" smooth="yes"/>
      <point x="1015" y="1355"/>
      <point x="854" y="1489"/>
      <point x="600" y="1489" type="curve" smooth="yes"/>
      <point x="430" y="1489"/>
      <point x="288" y="1412"/>
      <point x="188" y="1256" type="curve"/>
      <point x="346" y="1161" type="line"/>
      <point x="428" y="1282"/>
      <point x="505" y="1316"/>
      <point x="607" y="1316" type="curve" smooth="yes"/>
      <point x="729" y="1316"/>
      <point x="802" y="1240"/>
      <point x="802" y="1140" type="curve" smooth="yes"/>
      <point x="802" y="1006"/>
      <point x="768" y="894"/>
      <point x="494" y="894" type="curve"/>
      <point x="494" y="726" type="line"/>
      <point x="721" y="726"/>
      <point x="872" y="660"/>
      <point x="863" y="396" type="curve" smooth="yes"/>
      <point x="859" y="265"/>
      <point x="786" y="146"/>
      <point x="595" y="152" type="curve" smooth="yes"/>
      <point x="447" y="157"/>
      <point x="388" y="243"/>
      <point x="340" y="378" type="curve"/>
      <point x="154" y="316" type="line"/>
      <point x="215" y="68"/>
      <point x="387" y="-23"/>
      <point x="612" y="-24" type="curve" smooth="yes"/>
      <point x="922" y="-25"/>
      <point x="1086" y="196"/>
      <point x="1086" y="399" type="curve" smooth="yes"/>
      <point x="1086" y="577"/>
      <point x="1018" y="754"/>
      <point x="803" y="821" type="curve"/>
      <point x="967" y="882"/>
      <point x="1015" y="1016"/>
    </contour>
  </outline>
</glyph>
<glyph name="four" format="1">
  <advance width="1246"/>
  <unicode hex="0034"/>
  <outline>
    <contour>
      <point x="103" y="507" type="line"/>
      <point x="656" y="1464" type="line"/>
      <point x="958" y="1464" type="line"/>
      <point x="958" y="510" type="line"/>
      <point x="1193" y="510" type="line"/>
      <point x="1193" y="347" type="line"/>
      <point x="959" y="347" type="line"/>
      <point x="959" y="0" type="line"/>
      <point x="751" y="0" type="line"/>
      <point x="751" y="347" type="line"/>
      <point x="103" y="347" type="line"/>
    </contour>
    <contour>
      <point x="751" y="1319" type="line"/>
      <point x="309" y="510" type="line"/>
      <point x="751" y="510" type="line"/>
    </contour>
  </outline>
</glyph>
<glyph name="five" format="1">
  <advance width="1246"/>
  <unicode hex="0035"/>
  <outline>
    <contour>
      <point x="632" y="-24" type="curve" smooth="yes"/>
      <point x="941" y="-24"/>
      <point x="1135" y="181"/>
      <point x="1135" y="461" type="curve" smooth="yes"/>
      <point x="1135" y="719"/>
      <point x="983" y="928"/>
      <point x="652" y="928" type="curve" smooth="yes"/>
      <point x="572" y="928"/>
      <point x="465" y="908"/>
      <point x="375" y="858" type="curve"/>
      <point x="438" y="856" type="line"/>
      <point x="502" y="1275" type="line"/>
      <point x="1019" y="1275" type="line"/>
      <point x="1019" y="1464" type="line"/>
      <point x="308" y="1464" type="line"/>
      <point x="212" y="744" type="line"/>
      <point x="347" y="658" type="line"/>
      <point x="446" y="725"/>
      <point x="541" y="751"/>
      <point x="642" y="751" type="curve" smooth="yes"/>
      <point x="813" y="751"/>
      <point x="914" y="621"/>
      <point x="914" y="453" type="curve" smooth="yes"/>
      <point x="914" y="273"/>
      <point x="782" y="149"/>
      <point x="623" y="149" type="curve" smooth="yes"/>
      <point x="491" y="149"/>
      <point x="373" y="229"/>
      <point x="300" y="382" type="curve"/>
      <point x="116" y="309" type="line"/>
      <point x="210" y="66"/>
      <point x="395" y="-24"/>
    </contour>
  </outline>
</glyph>
<glyph name="seven" format="1">
  <advance width="1246"/>
  <unicode hex="0037"/>
  <outline>
    <contour>
      <point x="210" y="1294" type="line"/>
      <point x="194" y="1464" type="line"/>
      <point x="1077" y="1464" type="line"/>
      <point x="1077" y="1295" type="line"/>
      <point x="563" y="-1" type="line"/>
      <point x="323" y="0" type="line"/>
      <point x="846" y="1294" type="line"/>
    </contour>
  </outline>
</glyph>
<glyph name="eight" format="1">
  <advance width="1246"/>
  <unicode hex="0038"/>
  <outline>
    <contour>
      <point x="541" y="680" type="curve"/>
      <point x="395" y="586"/>
      <point x="373" y="477"/>
      <point x="384" y="361" type="curve" smooth="yes"/>
      <point x="395" y="247"/>
      <point x="477" y="155"/>
      <point x="623" y="154" type="curve" smooth="yes"/>
      <point x="755" y="153"/>
      <point x="877" y="236"/>
      <point x="877" y="368" type="curve" smooth="yes"/>
      <point x="877" y="586"/>
      <point x="756" y="618"/>
    </contour>
    <contour>
      <point x="145" y="351" type="curve" smooth="yes"/>
      <point x="142" y="503"/>
      <point x="185" y="625"/>
      <point x="389" y="744" type="curve"/>
      <point x="276" y="797"/>
      <point x="154" y="925"/>
      <point x="154" y="1101" type="curve" smooth="yes"/>
      <point x="154" y="1379"/>
      <point x="395" y="1489"/>
      <point x="633" y="1489" type="curve" smooth="yes"/>
      <point x="878" y="1489"/>
      <point x="1100" y="1375"/>
      <point x="1100" y="1099" type="curve" smooth="yes"/>
      <point x="1100" y="903"/>
      <point x="928" y="798"/>
      <point x="839" y="766" type="curve"/>
      <point x="1094" y="643"/>
      <point x="1101" y="506"/>
      <point x="1101" y="365" type="curve" smooth="yes"/>
      <point x="1101" y="160"/>
      <point x="926" y="-24"/>
      <point x="608" y="-24" type="curve" smooth="yes"/>
      <point x="320" y="-24"/>
      <point x="149" y="154"/>
    </contour>
    <contour>
      <point x="676" y="827" type="curve"/>
      <point x="768" y="875"/>
      <point x="873" y="942"/>
      <point x="873" y="1101" type="curve" smooth="yes"/>
      <point x="873" y="1228"/>
      <point x="790" y="1313"/>
      <point x="633" y="1313" type="curve" smooth="yes"/>
      <point x="483" y="1313"/>
      <point x="383" y="1241"/>
      <point x="383" y="1104" type="curve" smooth="yes"/>
      <point x="383" y="914"/>
      <point x="471" y="892"/>
    </contour>
  </outline>
</glyph>
<glyph name="colon" format="1">
  <advance width="482"/>
  <unicode hex="003A"/>
  <outline>
    <contour>
      <point x="375" y="408" type="line"/>
      <point x="375" y="171" type="line"/>
      <point x="116" y="171" type="line"/>
      <point x="116" y="408" type="line"/>
    </contour>
    <contour>
      <point x="116" y="1047" type="line"/>
      <point x="375" y="1047" type="line"/>
      <point x="375" y="808" type="line"/>
      <point x="116" y="808" type="line"/>
    </contour>
  </outline>
</glyph>
<glyph name="semicolon" format="1">
  <advance width="478"/>
  <unicode hex="003B"/>
  <outline>
    <contour>
      <point x="220" y="-295" type="line"/>
      <point x="362" y="-214"/>
      <point x="393" y="-103"/>
      <point x="393" y="95" type="curve" smooth="yes"/>
      <point x="393" y="240" type="line"/>
      <point x="123" y="240" type="line"/>
      <point x="123" y="0" type="line"/>
      <point x="242" y="-13" type="line"/>
      <point x="242" y="-92"/>
      <point x="182" y="-172"/>
      <point x="149" y="-203" type="curve"/>
    </contour>
    <contour>
      <point x="116" y="808" type="line"/>
      <point x="375" y="808" type="line"/>
      <point x="375" y="1047" type="line"/>
      <point x="116" y="1047" type="line"/>
    </contour>
  </outline>
</glyph>
<glyph name="equal" format="1">
  <advance width="820"/>
  <unicode hex="003D"/>
  <outline>
    <contour>
      <point x="135" y="269" type="line"/>
      <point x="685" y="269" type="line"/>
      <point x="685" y="416" type="line"/>
      <point x="135" y="416" type="line"/>
    </contour>
    <contour>
      <point x="135" y="518" type="line"/>
      <point x="685" y="518" type="line"/>
      <point x="685" y="665" type="line"/>
      <point x="135" y="665" type="line"/>
    </contour>
  </outline>
</glyph>
<glyph name="greater" format="1">
  <advance width="1051"/>
  <unicode hex="003E"/>
  <outline>
    <contour>
      <point x="49" y="72" type="line"/>
      <point x="998" y="423" type="line"/>
      <point x="998" y="617" type="line"/>
      <point x="49" y="983" type="line"/>
      <point x="49" y="775" type="line"/>
      <point x="759" y="531" type="line"/>
      <point x="49" y="301" type="line"/>
    </contour>
  </outline>
</glyph>
<glyph name="question" format="1">
  <advance width="1010"/>
  <unicode hex="003F"/>
  <outline>
    <contour>
      <point x="332" y="358" type="curve"/>
      <point x="526" y="358" type="line"/>
      <point x="734" y="715"/>
      <point x="941" y="805"/>
      <point x="941" y="1094" type="curve" smooth="yes"/>
      <point x="941" y="1296"/>
      <point x="816" y="1491"/>
      <point x="497" y="1491" type="curve" smooth="yes"/>
      <point x="327" y="1491"/>
      <point x="154" y="1440"/>
      <point x="35" y="1251" type="curve"/>
      <point x="184" y="1143" type="line"/>
      <point x="214" y="1189"/>
      <point x="305" y="1316"/>
      <point x="488" y="1316" type="curve" smooth="yes"/>
      <point x="659" y="1316"/>
      <point x="722" y="1227"/>
      <point x="722" y="1089" type="curve" smooth="yes"/>
      <point x="722" y="841"/>
      <point x="538" y="775"/>
    </contour>
    <contour>
      <point x="315" y="0" type="line"/>
      <point x="557" y="0" type="line"/>
      <point x="557" y="235" type="line"/>
      <point x="315" y="235" type="line"/>
    </contour>
  </outline>
</glyph>
<glyph name="A" format="1">
  <advance width="1297"/>
  <unicode hex="0041"/>
  <outline>
    <contour>
      <point x="28" y="0" type="line"/>
      <point x="248" y="0" type="line"/>
      <point x="364" y="379" type="line"/>
      <point x="916" y="379" type="line"/>
      <point x="1038" y="0" type="line"/>
      <point x="1269" y="0" type="line"/>
      <point x="804" y="1464" type="line"/>
      <point x="484" y="1464" type="line"/>
    </contour>
    <contour>
      <point x="412" y="540" type="line"/>
      <point x="640" y="1320" type="line"/>
      <point x="866" y="540" type="line"/>
    </contour>
    <contour>
      <point x="1147" y="0" type="move" name="ogonek"/>
    </contour>
    <contour>
      <point x="649" y="1464" type="move" name="top"/>
    </contour>
  </outline>
</glyph>
<glyph name="B" format="1">
  <advance width="1331"/>
  <unicode hex="0042"/>
  <outline>
    <contour>
      <point x="136" y="0" type="line"/>
      <point x="559" y="0" type="line" smooth="yes"/>
      <point x="1017" y="0"/>
      <point x="1251" y="85"/>
      <point x="1251" y="413" type="curve" smooth="yes"/>
      <point x="1251" y="604"/>
      <point x="1190" y="746"/>
      <point x="976" y="778" type="curve"/>
      <point x="1172" y="812"/>
      <point x="1203" y="948"/>
      <point x="1203" y="1108" type="curve" smooth="yes"/>
      <point x="1203" y="1417"/>
      <point x="897" y="1464"/>
      <point x="595" y="1464" type="curve" smooth="yes"/>
      <point x="136" y="1464" type="line"/>
    </contour>
    <contour>
      <point x="356" y="164" type="line"/>
      <point x="356" y="697" type="line"/>
      <point x="633" y="697" type="line" smooth="yes"/>
      <point x="903" y="697"/>
      <point x="1032" y="669"/>
      <point x="1032" y="419" type="curve" smooth="yes"/>
      <point x="1032" y="168"/>
      <point x="807" y="164"/>
      <point x="586" y="164" type="curve" smooth="yes"/>
    </contour>
    <contour>
      <point x="356" y="857" type="line"/>
      <point x="356" y="1300" type="line"/>
      <point x="602" y="1300" type="line" smooth="yes"/>
      <point x="837" y="1300"/>
      <point x="983" y="1304"/>
      <point x="994" y="1114" type="curve" smooth="yes"/>
      <point x="1006" y="903"/>
      <point x="947" y="857"/>
      <point x="639" y="857" type="curve" smooth="yes"/>
    </contour>
    <contour>
      <point x="577" y="0" type="move" name="bot"/>
    </contour>
    <contour>
      <point x="697" y="1464" type="move" name="top"/>
    </contour>
  </outline>
</glyph>
<glyph name="C" format="1">
  <advance width="1410"/>
  <unicode hex="0043"/>
  <outline>
    <contour>
      <point x="774" y="-24" type="curve" smooth="yes"/>
      <point x="1032" y="-24"/>
      <point x="1248" y="79"/>
      <point x="1341" y="355" type="curve"/>
      <point x="1137" y="402" type="line"/>
      <point x="1081" y="253"/>
      <point x="988" y="150"/>
      <point x="765" y="150" type="curve" smooth="yes"/>
      <point x="453" y="150"/>
      <point x="346" y="337"/>
      <point x="346" y="734" type="curve" smooth="yes"/>
      <point x="346" y="1131"/>
      <point x="453" y="1313"/>
      <point x="765" y="1313" type="curve" smooth="yes"/>
      <point x="988" y="1313"/>
      <point x="1081" y="1211"/>
      <point x="1137" y="1062" type="curve"/>
      <point x="1341" y="1109" type="line"/>
      <point x="1248" y="1385"/>
      <point x="1032" y="1488"/>
      <point x="774" y="1488" type="curve" smooth="yes"/>
      <point x="352" y="1488"/>
      <point x="114" y="1265"/>
      <point x="114" y="734" type="curve" smooth="yes"/>
      <point x="114" y="203"/>
      <point x="352" y="-24"/>
    </contour>
    <contour>
      <point x="737" y="0" type="move" name="bot"/>
    </contour>
    <contour>
      <point x="773" y="1464" type="move" name="top"/>
    </contour>
  </outline>
</glyph>
<glyph name="D" format="1">
  <advance width="1460"/>
  <unicode hex="0044"/>
  <outline>
    <contour>
      <point x="356" y="168" type="line"/>
      <point x="356" y="1296" type="line"/>
      <point x="682" y="1296" type="line" smooth="yes"/>
      <point x="1028" y="1296"/>
      <point x="1125" y="1127"/>
      <point x="1125" y="737" type="curve" smooth="yes"/>
      <point x="1125" y="292"/>
      <point x="999" y="168"/>
      <point x="622" y="168" type="curve" smooth="yes"/>
    </contour>
    <contour>
      <point x="136" y="0" type="line"/>
      <point x="685" y="0" type="line" smooth="yes"/>
      <point x="1157" y="0"/>
      <point x="1346" y="213"/>
      <point x="1346" y="738" type="curve" smooth="yes"/>
      <point x="1346" y="1280"/>
      <point x="1126" y="1464"/>
      <point x="684" y="1464" type="curve" smooth="yes"/>
      <point x="136" y="1464" type="line"/>
    </contour>
    <contour>
      <point x="697" y="1464" type="move" name="top"/>
    </contour>
  </outline>
</glyph>
<glyph name="E" format="1">
  <advance width="1230"/>
  <unicode hex="0045"/>
  <outline>
    <contour>
      <point x="136" y="1464" type="line"/>
      <point x="136" y="0" type="line"/>
      <point x="1160" y="0" type="line"/>
      <point x="1160" y="164" type="line"/>
      <point x="356" y="164" type="line"/>
      <point x="356" y="694" type="line"/>
      <point x="1047" y="694" type="line"/>
      <point x="1047" y="862" type="line"/>
      <point x="356" y="862" type="line"/>
      <point x="356" y="1300" type="line"/>
      <point x="1149" y="1300" type="line"/>
      <point x="1149" y="1464" type="line"/>
    </contour>
    <contour>
      <point x="687" y="1464" type="move" name="top"/>
    </contour>
  </outline>
</glyph>
<glyph name="F" format="1">
  <advance width="1205"/>
  <unicode hex="0046"/>
  <outline>
    <contour>
      <point x="136" y="0" type="line"/>
      <point x="356" y="0" type="line"/>
      <point x="356" y="682" type="line"/>
      <point x="1050" y="682" type="line"/>
      <point x="1050" y="850" type="line"/>
      <point x="356" y="850" type="line"/>
      <point x="356" y="1300" type="line"/>
      <point x="1162" y="1300" type="line"/>
      <point x="1162" y="1464" type="line"/>
      <point x="136" y="1464" type="line"/>
    </contour>
    <contour>
      <point x="690" y="1464" type="move" name="top"/>
    </contour>
  </outline>
</glyph>
<glyph name="G" format="1">
  <advance width="1428"/>
  <unicode hex="0047"/>
  <outline>
    <contour>
      <point x="746" y="-24" type="curve" smooth="yes"/>
      <point x="930" y="-24"/>
      <point x="1049" y="46"/>
      <point x="1111" y="138" type="curve"/>
      <point x="1155" y="0" type="line"/>
      <point x="1297" y="0" type="line"/>
      <point x="1297" y="0"/>
      <point x="1307" y="428"/>
      <point x="1307" y="581" type="curve" smooth="yes"/>
      <point x="1307" y="824" type="line"/>
      <point x="783" y="824" type="line"/>
      <point x="783" y="636" type="line"/>
      <point x="1090" y="636" type="line"/>
      <point x="1090" y="452" type="line" smooth="yes"/>
      <point x="1090" y="245"/>
      <point x="930" y="150"/>
      <point x="764" y="150" type="curve" smooth="yes"/>
      <point x="485" y="150"/>
      <point x="346" y="316"/>
      <point x="346" y="721" type="curve" smooth="yes"/>
      <point x="346" y="1149"/>
      <point x="449" y="1313"/>
      <point x="752" y="1313" type="curve" smooth="yes"/>
      <point x="939" y="1313"/>
      <point x="1051" y="1227"/>
      <point x="1119" y="1043" type="curve"/>
      <point x="1310" y="1107" type="line"/>
      <point x="1229" y="1347"/>
      <point x="1062" y="1488"/>
      <point x="758" y="1488" type="curve" smooth="yes"/>
      <point x="359" y="1488"/>
      <point x="114" y="1288"/>
      <point x="114" y="722" type="curve" smooth="yes"/>
      <point x="114" y="164"/>
      <point x="392" y="-24"/>
    </contour>
    <contour>
      <point x="747" y="0" type="move" name="bot"/>
    </contour>
    <contour>
      <point x="763" y="1464" type="move" name="top"/>
    </contour>
  </outline>
</glyph>
<glyph name="H" format="1">
  <advance width="1508"/>
  <unicode hex="0048"/>
  <outline>
    <contour>
      <point x="1152" y="1464" type="line"/>
      <point x="1152" y="844" type="line"/>
      <point x="356" y="844" type="line"/>
      <point x="356" y="1464" type="line"/>
      <point x="136" y="1464" type="line"/>
      <point x="136" y="0" type="line"/>
      <point x="356" y="0" type="line"/>
      <point x="356" y="669" type="line"/>
      <point x="1152" y="669" type="line"/>
      <point x="1152" y="0" type="line"/>
      <point x="1372" y="0" type="line"/>
      <point x="1372" y="1464" type="line"/>
    </contour>
    <contour>
      <point x="777" y="1464" type="move" name="top"/>
    </contour>
  </outline>
</glyph>
<glyph name="I" format="1">
  <advance width="464"/>
  <unicode hex="0049"/>
  <outline>
    <contour>
      <point x="125" y="1464" type="line"/>
      <point x="125" y="0" type="line"/>
      <point x="345" y="0" type="line"/>
      <point x="345" y="1464" type="line"/>
    </contour>
    <contour>
      <point x="246" y="1464" type="move" name="top"/>
    </contour>
  </outline>
</glyph>
<glyph name="J" format="1">
  <advance width="1061"/>
  <unicode hex="004A"/>
  <outline>
    <contour>
      <point x="457" y="-20" type="curve" smooth="yes"/>
      <point x="774" y="-20"/>
      <point x="925" y="166"/>
      <point x="925" y="544" type="curve" smooth="yes"/>
      <point x="925" y="1464" type="line"/>
      <point x="705" y="1464" type="line"/>
      <point x="705" y="541" type="line" smooth="yes"/>
      <point x="705" y="275"/>
      <point x="646" y="158"/>
      <point x="463" y="158" type="curve" smooth="yes"/>
      <point x="366" y="158"/>
      <point x="272" y="216"/>
      <point x="234" y="387" type="curve"/>
      <point x="35" y="332" type="line"/>
      <point x="78" y="115"/>
      <point x="227" y="-20"/>
    </contour>
    <contour>
      <point x="816" y="1464" type="move" name="top"/>
    </contour>
  </outline>
</glyph>
<glyph name="K" format="1">
  <advance width="1300"/>
  <unicode hex="004B"/>
  <outline>
    <contour>
      <point x="990" y="1464" type="line"/>
      <point x="356" y="798" type="line"/>
      <point x="356" y="1464" type="line"/>
      <point x="136" y="1464" type="line"/>
      <point x="136" y="0" type="line"/>
      <point x="356" y="0" type="line"/>
      <point x="356" y="538" type="line"/>
      <point x="577" y="766" type="line"/>
      <point x="1059" y="0" type="line"/>
      <point x="1308" y="0" type="line"/>
      <point x="727" y="921" type="line"/>
      <point x="1254" y="1464" type="line"/>
    </contour>
    <contour>
      <point x="677" y="1464" type="move" name="top"/>
    </contour>
  </outline>
</glyph>
<glyph name="L" format="1">
  <advance width="1077"/>
  <unicode hex="004C"/>
  <outline>
    <contour>
      <point x="136" y="1464" type="line"/>
      <point x="136" y="0" type="line"/>
      <point x="1083" y="0" type="line"/>
      <point x="1083" y="164" type="line"/>
      <point x="356" y="164" type="line"/>
      <point x="356" y="1464" type="line"/>
    </contour>
    <contour>
      <point x="691" y="1474" type="move" name="top"/>
    </contour>
  </outline>
</glyph>
<glyph name="O" format="1">
  <advance width="1529"/>
  <unicode hex="004F"/>
  <outline>
    <contour>
      <point x="763" y="150" type="curve" smooth="yes"/>
      <point x="448" y="150"/>
      <point x="346" y="339"/>
      <point x="346" y="740" type="curve" smooth="yes"/>
      <point x="346" y="1094"/>
      <point x="433" y="1313"/>
      <point x="763" y="1313" type="curve" smooth="yes"/>
      <point x="1094" y="1313"/>
      <point x="1183" y="1095"/>
      <point x="1183" y="739" type="curve" smooth="yes"/>
      <point x="1183" y="334"/>
      <point x="1084" y="150"/>
    </contour>
    <contour>
      <point x="762" y="-24" type="curve" smooth="yes"/>
      <point x="1163" y="-24"/>
      <point x="1415" y="183"/>
      <point x="1415" y="741" type="curve" smooth="yes"/>
      <point x="1415" y="1291"/>
      <point x="1153" y="1488"/>
      <point x="763" y="1488" type="curve" smooth="yes"/>
      <point x="374" y="1488"/>
      <point x="114" y="1292"/>
      <point x="114" y="740" type="curve" smooth="yes"/>
      <point x="114" y="176"/>
      <point x="369" y="-24"/>
    </contour>
    <contour>
      <point x="823" y="0" type="move" name="ogonek"/>
    </contour>
    <contour>
      <point x="762" y="1464" type="move" name="top"/>
    </contour>
  </outline>
</glyph>
<glyph name="P" format="1">
  <advance width="1295"/>
  <unicode hex="0050"/>
  <outline>
    <contour>
      <point x="136" y="1464" type="line"/>
      <point x="136" y="0" type="line"/>
      <point x="356" y="0" type="line"/>
      <point x="356" y="625" type="line"/>
      <point x="541" y="625" type="line" smooth="yes"/>
      <point x="1053" y="625"/>
      <point x="1241" y="724"/>
      <point x="1241" y="1063" type="curve" smooth="yes"/>
      <point x="1241" y="1360"/>
      <point x="1046" y="1464"/>
      <point x="570" y="1464" type="curve" smooth="yes"/>
    </contour>
    <contour>
      <point x="856" y="1298"/>
      <point x="1017" y="1283"/>
      <point x="1017" y="1055" type="curve" smooth="yes"/>
      <point x="1017" y="830"/>
      <point x="892" y="794"/>
      <point x="577" y="794" type="curve" smooth="yes"/>
      <point x="356" y="794" type="line"/>
      <point x="356" y="1298" type="line"/>
      <point x="557" y="1298" type="line" smooth="yes"/>
    </contour>
    <contour>
      <point x="617" y="1464" type="move" name="top"/>
    </contour>
  </outline>
</glyph>
<glyph name="Q" format="1">
  <advance width="1546"/>
  <unicode hex="0051"/>
  <outline>
    <contour>
      <point x="374" y="1488"/>
      <point x="114" y="1292"/>
      <point x="114" y="740" type="curve" smooth="yes"/>
      <point x="114" y="176"/>
      <point x="369" y="-24"/>
      <point x="762" y="-24" type="curve" smooth="yes"/>
      <point x="861" y="-24"/>
      <point x="952" y="-11"/>
      <point x="1031" y="16" type="curve"/>
      <point x="1290" y="-364" type="line"/>
      <point x="1453" y="-243" type="line"/>
      <point x="1190" y="104" type="line"/>
      <point x="1334" y="221"/>
      <point x="1415" y="424"/>
      <point x="1415" y="741" type="curve" smooth="yes"/>
      <point x="1415" y="1291"/>
      <point x="1153" y="1488"/>
      <point x="763" y="1488" type="curve" smooth="yes"/>
    </contour>
    <contour>
      <point x="1094" y="1313"/>
      <point x="1183" y="1095"/>
      <point x="1183" y="739" type="curve" smooth="yes"/>
      <point x="1183" y="334"/>
      <point x="1084" y="150"/>
      <point x="763" y="150" type="curve" smooth="yes"/>
      <point x="448" y="150"/>
      <point x="346" y="339"/>
      <point x="346" y="740" type="curve" smooth="yes"/>
      <point x="346" y="1094"/>
      <point x="433" y="1313"/>
      <point x="763" y="1313" type="curve" smooth="yes"/>
    </contour>
    <contour>
      <point x="762" y="1464" type="move" name="top"/>
    </contour>
  </outline>
</glyph>
<glyph name="R" format="1">
  <advance width="1340"/>
  <unicode hex="0052"/>
  <outline>
    <contour>
      <point x="136" y="1464" type="line"/>
      <point x="136" y="0" type="line"/>
      <point x="356" y="0" type="line"/>
      <point x="356" y="662" type="line"/>
      <point x="722" y="662" type="line"/>
      <point x="1054" y="0" type="line"/>
      <point x="1291" y="0" type="line"/>
      <point x="942" y="692" type="line"/>
      <point x="1138" y="732"/>
      <point x="1256" y="876"/>
      <point x="1256" y="1075" type="curve" smooth="yes"/>
      <point x="1256" y="1337"/>
      <point x="1100" y="1464"/>
      <point x="713" y="1464" type="curve" smooth="yes"/>
    </contour>
    <contour>
      <point x="905" y="1298"/>
      <point x="1032" y="1261"/>
      <point x="1032" y="1073" type="curve" smooth="yes"/>
      <point x="1032" y="874"/>
      <point x="891" y="828"/>
      <point x="677" y="828" type="curve" smooth="yes"/>
      <point x="356" y="828" type="line"/>
      <point x="356" y="1298" type="line"/>
      <point x="704" y="1298" type="line" smooth="yes"/>
    </contour>
    <contour>
      <point x="647" y="1464" type="move" name="top"/>
    </contour>
  </outline>
</glyph>
<glyph name="S" format="1">
  <advance width="1235"/>
  <unicode hex="0053"/>
  <outline>
    <contour>
      <point x="620" y="-25" type="curve" smooth="yes"/>
      <point x="980" y="-25"/>
      <point x="1168" y="118"/>
      <point x="1168" y="393" type="curve" smooth="yes"/>
      <point x="1168" y="676"/>
      <point x="1002" y="778"/>
      <point x="732" y="866" type="curve" smooth="yes"/>
      <point x="457" y="956"/>
      <point x="335" y="966"/>
      <point x="335" y="1139" type="curve" smooth="yes"/>
      <point x="335" y="1255"/>
      <point x="442" y="1316"/>
      <point x="648" y="1316" type="curve" smooth="yes"/>
      <point x="793" y="1316"/>
      <point x="885" y="1261"/>
      <point x="970" y="1123" type="curve"/>
      <point x="1122" y="1240" type="line"/>
      <point x="996" y="1426"/>
      <point x="868" y="1491"/>
      <point x="623" y="1491" type="curve" smooth="yes"/>
      <point x="283" y="1491"/>
      <point x="106" y="1366"/>
      <point x="106" y="1125" type="curve" smooth="yes"/>
      <point x="106" y="852"/>
      <point x="296" y="788"/>
      <point x="572" y="699" type="curve" smooth="yes"/>
      <point x="860" y="606"/>
      <point x="938" y="571"/>
      <point x="939" y="386" type="curve" smooth="yes"/>
      <point x="940" y="232"/>
      <point x="837" y="152"/>
      <point x="639" y="152" type="curve" smooth="yes"/>
      <point x="410" y="152"/>
      <point x="306" y="230"/>
      <point x="235" y="454" type="curve"/>
      <point x="50" y="373" type="line"/>
      <point x="98" y="111"/>
      <point x="294" y="-25"/>
    </contour>
    <contour>
      <point x="626" y="0" type="move" name="bot"/>
    </contour>
    <contour>
      <point x="622" y="1464" type="move" name="top"/>
    </contour>
  </outline>
</glyph>
<glyph name="T" format="1">
  <advance width="1119"/>
  <unicode hex="0054"/>
  <outline>
    <contour>
      <point x="9" y="1464" type="line"/>
      <point x="9" y="1300" type="line"/>
      <point x="462" y="1300" type="line"/>
      <point x="462" y="0" type="line"/>
      <point x="682" y="0" type="line"/>
      <point x="682" y="1300" type="line"/>
      <point x="1110" y="1300" type="line"/>
      <point x="1110" y="1464" type="line"/>
    </contour>
    <contour>
      <point x="585" y="1464" type="move" name="top"/>
    </contour>
  </outline>
</glyph>
<glyph name="U" format="1">
  <advance width="1392"/>
  <unicode hex="0055"/>
  <outline>
    <contour>
      <point x="1056" y="1464" type="line"/>
      <point x="1056" y="598" type="line" smooth="yes"/>
      <point x="1056" y="303"/>
      <point x="988" y="150"/>
      <point x="697" y="150" type="curve" smooth="yes"/>
      <point x="404" y="150"/>
      <point x="336" y="308"/>
      <point x="336" y="598" type="curve" smooth="yes"/>
      <point x="336" y="1464" type="line"/>
      <point x="116" y="1464" type="line"/>
      <point x="116" y="574" type="line" smooth="yes"/>
      <point x="116" y="152"/>
      <point x="319" y="-24"/>
      <point x="691" y="-24" type="curve" smooth="yes"/>
      <point x="1077" y="-24"/>
      <point x="1276" y="161"/>
      <point x="1276" y="581" type="curve" smooth="yes"/>
      <point x="1276" y="1464" type="line"/>
    </contour>
    <contour>
      <point x="701" y="1464" type="move" name="top"/>
    </contour>
    <contour>
      <point x="803" y="0" type="move" name="ogonek"/>
    </contour>
  </outline>
</glyph>
<glyph name="V" format="1">
  <advance width="1164"/>
  <unicode hex="0056"/>
  <outline>
    <contour>
      <point x="477" y="0" type="line"/>
      <point x="688" y="0" type="line"/>
      <point x="1177" y="1464" type="line"/>
      <point x="960" y="1464" type="line"/>
      <point x="589" y="287" type="line"/>
      <point x="215" y="1464" type="line"/>
      <point x="-13" y="1464" type="line"/>
    </contour>
  </outline>
</glyph>
<glyph name="W" format="1">
  <advance width="1869"/>
  <unicode hex="0057"/>
  <outline>
    <contour>
      <point x="1660" y="1464" type="line"/>
      <point x="1346" y="325" type="line"/>
      <point x="1030" y="1464" type="line"/>
      <point x="876" y="1464" type="line"/>
      <point x="511" y="351" type="line"/>
      <point x="229" y="1464" type="line"/>
      <point x="0" y="1464" type="line"/>
      <point x="417" y="0" type="line"/>
      <point x="586" y="0" type="line"/>
      <point x="938" y="1041" type="line"/>
      <point x="1238" y="0" type="line"/>
      <point x="1427" y="0" type="line"/>
      <point x="1869" y="1464" type="line"/>
    </contour>
    <contour>
      <point x="956" y="1464" type="move" name="top"/>
    </contour>
  </outline>
</glyph>
<glyph name="X" format="1">
  <advance width="1306"/>
  <unicode hex="0058"/>
  <outline>
    <contour>
      <point x="-4" y="0" type="line"/>
      <point x="246" y="0" type="line"/>
      <point x="648" y="580" type="line"/>
      <point x="1050" y="0" type="line"/>
      <point x="1310" y="0" type="line"/>
      <point x="779" y="768" type="line"/>
      <point x="1269" y="1464" type="line"/>
      <point x="1020" y="1464" type="line"/>
      <point x="657" y="944" type="line"/>
      <point x="297" y="1464" type="line"/>
      <point x="35" y="1464" type="line"/>
      <point x="526" y="756" type="line"/>
    </contour>
  </outline>
</glyph>
<glyph name="Y" format="1">
  <advance width="1216"/>
  <unicode hex="0059"/>
  <outline>
    <contour>
      <point x="983" y="1464" type="line"/>
      <point x="612" y="747" type="line"/>
      <point x="234" y="1464" type="line"/>
      <point x="-2" y="1464" type="line"/>
      <point x="501" y="549" type="line"/>
      <point x="501" y="0" type="line"/>
      <point x="719" y="0" type="line"/>
      <point x="719" y="548" type="line"/>
      <point x="1218" y="1464" type="line"/>
    </contour>
    <contour>
      <point x="628" y="1464" type="move" name="top"/>
    </contour>
  </outline>
</glyph>
<glyph name="Z" format="1">
  <advance width="1176"/>
  <unicode hex="005A"/>
  <outline>
    <contour>
      <point x="125" y="1464" type="line"/>
      <point x="125" y="1298" type="line"/>
      <point x="853" y="1298" type="line"/>
      <point x="42" y="148" type="line"/>
      <point x="42" y="0" type="line"/>
      <point x="1134" y="0" type="line"/>
      <point x="1141" y="165" type="line"/>
      <point x="322" y="165" type="line"/>
      <point x="1136" y="1325" type="line"/>
      <point x="1136" y="1464" type="line"/>
    </contour>
    <contour>
      <point x="641" y="1464" type="move" name="top"/>
    </contour>
  </outline>
</glyph>
<glyph name="bracketright" format="1">
  <advance width="708"/>
  <unicode hex="005D"/>
  <outline>
    <contour>
      <point x="132" y="-52" type="line"/>
      <point x="620" y="-52" type="line"/>
      <point x="620" y="1480" type="line"/>
      <point x="132" y="1480" type="line"/>
      <point x="132" y="1320" type="line"/>
      <point x="400" y="1320" type="line"/>
      <point x="400" y="110" type="line"/>
      <point x="132" y="110" type="line"/>
    </contour>
  </outline>
</glyph>
<glyph name="grave" format="1">
  <advance width="496"/>
  <unicode hex="0060"/>
  <outline>
    <contour>
      <point x="346" y="1154" type="line"/>
      <point x="487" y="1154" type="line"/>
      <point x="285" y="1474" type="line"/>
      <point x="-5" y="1474" type="line"/>
    </contour>
    <contour>
      <point x="418" y="1023" type="move" name="_top"/>
    </contour>
  </outline>
</glyph>
<glyph name="a" format="1">
  <advance width="1004"/>
  <unicode hex="0061"/>
  <outline>
    <contour>
      <point x="323" y="1047"/>
      <point x="213" y="1003"/>
      <point x="99" y="921" type="curve"/>
      <point x="99" y="921"/>
      <point x="182" y="796"/>
      <point x="182" y="795" type="curve"/>
      <point x="269" y="853"/>
      <point x="349" y="896"/>
      <point x="491" y="896" type="curve" smooth="yes"/>
      <point x="662" y="896"/>
      <point x="688" y="821"/>
      <point x="688" y="642" type="curve" smooth="yes"/>
      <point x="688" y="601" type="line"/>
      <point x="569" y="582" type="line" smooth="yes"/>
      <point x="284" y="537"/>
      <point x="70" y="501"/>
      <point x="70" y="245" type="curve" smooth="yes"/>
      <point x="70" y="68"/>
      <point x="207" y="-24"/>
      <point x="389" y="-24" type="curve" smooth="yes"/>
      <point x="522" y="-24"/>
      <point x="632" y="25"/>
      <point x="700" y="120" type="curve"/>
      <point x="718" y="0" type="line"/>
      <point x="900" y="0" type="line"/>
      <point x="900" y="680" type="line" smooth="yes"/>
      <point x="900" y="934"/>
      <point x="743" y="1047"/>
      <point x="499" y="1047" type="curve" smooth="yes"/>
    </contour>
    <contour>
      <point x="688" y="263" type="line"/>
      <point x="618" y="183"/>
      <point x="538" y="125"/>
      <point x="417" y="125" type="curve" smooth="yes"/>
      <point x="300" y="125"/>
      <point x="269" y="180"/>
      <point x="267" y="261" type="curve" smooth="yes"/>
      <point x="264" y="373"/>
      <point x="323" y="399"/>
      <point x="555" y="443" type="curve" smooth="yes"/>
      <point x="688" y="468" type="line"/>
    </contour>
    <contour>
      <point x="518" y="1023" type="move" name="top"/>
    </contour>
  </outline>
</glyph>
<glyph name="b" format="1">
  <advance width="1155"/>
  <unicode hex="0062"/>
  <outline>
    <contour>
      <point x="620" y="-24" type="curve" smooth="yes"/>
      <point x="903" y="-24"/>
      <point x="1063" y="169"/>
      <point x="1063" y="521" type="curve" smooth="yes"/>
      <point x="1063" y="868"/>
      <point x="881" y="1047"/>
      <point x="619" y="1047" type="curve" smooth="yes"/>
      <point x="493" y="1047"/>
      <point x="400" y="991"/>
      <point x="336" y="909" type="curve"/>
      <point x="336" y="1474" type="line"/>
      <point x="124" y="1474" type="line"/>
      <point x="124" y="0" type="line"/>
      <point x="287" y="0" type="line"/>
      <point x="297" y="145" type="line"/>
      <point x="362" y="37"/>
      <point x="473" y="-24"/>
    </contour>
    <contour>
      <point x="605" y="126" type="curve" smooth="yes"/>
      <point x="373" y="126"/>
      <point x="329" y="275"/>
      <point x="329" y="522" type="curve" smooth="yes"/>
      <point x="329" y="834"/>
      <point x="476" y="897"/>
      <point x="606" y="897" type="curve" smooth="yes"/>
      <point x="771" y="897"/>
      <point x="846" y="761"/>
      <point x="846" y="518" type="curve" smooth="yes"/>
      <point x="846" y="254"/>
      <point x="777" y="126"/>
    </contour>
    <contour>
      <point x="662" y="1023" type="move" name="top"/>
    </contour>
  </outline>
</glyph>
<glyph name="c" format="1">
  <advance width="1019"/>
  <unicode hex="0063"/>
  <outline>
    <contour>
      <point x="246" y="1047"/>
      <point x="89" y="819"/>
      <point x="89" y="511" type="curve" smooth="yes"/>
      <point x="89" y="203"/>
      <point x="245" y="-24"/>
      <point x="541" y="-24" type="curve" smooth="yes"/>
      <point x="739" y="-24"/>
      <point x="901" y="47"/>
      <point x="957" y="297" type="curve"/>
      <point x="789" y="348" type="line"/>
      <point x="752" y="192"/>
      <point x="676" y="127"/>
      <point x="549" y="127" type="curve" smooth="yes"/>
      <point x="399" y="127"/>
      <point x="306" y="249"/>
      <point x="306" y="514" type="curve" smooth="yes"/>
      <point x="306" y="769"/>
      <point x="396" y="896"/>
      <point x="549" y="896" type="curve" smooth="yes"/>
      <point x="674" y="896"/>
      <point x="746" y="832"/>
      <point x="784" y="682" type="curve"/>
      <point x="959" y="725" type="line"/>
      <point x="903" y="970"/>
      <point x="740" y="1047"/>
      <point x="542" y="1047" type="curve" smooth="yes"/>
    </contour>
    <contour>
      <point x="555" y="0" type="move" name="bot"/>
    </contour>
    <contour>
      <point x="545" y="1023" type="move" name="top"/>
    </contour>
  </outline>
</glyph>
<glyph name="d" format="1">
  <advance width="1150"/>
  <unicode hex="0064"/>
  <outline>
    <contour>
      <point x="814" y="1478" type="line"/>
      <point x="814" y="916" type="line"/>
      <point x="752" y="995"/>
      <point x="662" y="1047"/>
      <point x="539" y="1047" type="curve" smooth="yes"/>
      <point x="277" y="1047"/>
      <point x="89" y="873"/>
      <point x="89" y="523" type="curve" smooth="yes"/>
      <point x="89" y="171"/>
      <point x="252" y="-24"/>
      <point x="535" y="-24" type="curve" smooth="yes"/>
      <point x="679" y="-24"/>
      <point x="788" y="36"/>
      <point x="854" y="140" type="curve"/>
      <point x="863" y="4" type="line"/>
      <point x="1026" y="4" type="line"/>
      <point x="1026" y="1478" type="line"/>
    </contour>
    <contour>
      <point x="676" y="902"/>
      <point x="824" y="830"/>
      <point x="824" y="522" type="curve" smooth="yes"/>
      <point x="824" y="291"/>
      <point x="765" y="115"/>
      <point x="550" y="126" type="curve" smooth="yes"/>
      <point x="374" y="135"/>
      <point x="305" y="259"/>
      <point x="305" y="523" type="curve" smooth="yes"/>
      <point x="305" y="769"/>
      <point x="380" y="890"/>
      <point x="546" y="897" type="curve" smooth="yes"/>
    </contour>
  </outline>
</glyph>
<glyph name="e" format="1">
  <advance width="1039"/>
  <unicode hex="0065"/>
  <outline>
    <contour>
      <point x="556" y="-24" type="curve" smooth="yes"/>
      <point x="753" y="-24"/>
      <point x="900" y="94"/>
      <point x="947" y="272" type="curve"/>
      <point x="788" y="307" type="line"/>
      <point x="753" y="212"/>
      <point x="691" y="127"/>
      <point x="553" y="127" type="curve" smooth="yes"/>
      <point x="369" y="127"/>
      <point x="307" y="304"/>
      <point x="304" y="468" type="curve"/>
      <point x="962" y="468" type="line"/>
      <point x="964" y="485"/>
      <point x="965" y="559"/>
      <point x="965" y="568" type="curve" smooth="yes"/>
      <point x="965" y="841"/>
      <point x="832" y="1047"/>
      <point x="547" y="1047" type="curve" smooth="yes"/>
      <point x="258" y="1047"/>
      <point x="92" y="843"/>
      <point x="92" y="512" type="curve" smooth="yes"/>
      <point x="92" y="217"/>
      <point x="233" y="-24"/>
    </contour>
    <contour>
      <point x="304" y="607" type="line"/>
      <point x="309" y="721"/>
      <point x="362" y="896"/>
      <point x="543" y="896" type="curve" smooth="yes"/>
      <point x="705" y="896"/>
      <point x="766" y="796"/>
      <point x="766" y="607" type="curve"/>
    </contour>
    <contour>
      <point x="651" y="0" type="move" name="ogonek"/>
    </contour>
    <contour>
      <point x="548" y="1023" type="move" name="top"/>
    </contour>
    <contour>
      <point x="557" y="0" type="move" name="bot"/>
    </contour>
  </outline>
</glyph>
<glyph name="f" format="1">
  <advance width="640"/>
  <unicode hex="0066"/>
  <outline>
    <contour>
      <point x="301" y="1474"/>
      <point x="196" y="1417"/>
      <point x="196" y="1135" type="curve" smooth="yes"/>
      <point x="196" y="1023" type="line"/>
      <point x="21" y="1023" type="line"/>
      <point x="21" y="868" type="line"/>
      <point x="196" y="868" type="line"/>
      <point x="196" y="0" type="line"/>
      <point x="408" y="0" type="line"/>
      <point x="408" y="868" type="line"/>
      <point x="624" y="868" type="line"/>
      <point x="624" y="1023" type="line"/>
      <point x="408" y="1023" type="line"/>
      <point x="407" y="1143" type="line" smooth="yes"/>
      <point x="406" y="1282"/>
      <point x="420" y="1312"/>
      <point x="506" y="1312" type="curve" smooth="yes"/>
      <point x="538" y="1312"/>
      <point x="579" y="1300"/>
      <point x="612" y="1283" type="curve"/>
      <point x="665" y="1424" type="line"/>
      <point x="621" y="1448"/>
      <point x="539" y="1474"/>
      <point x="481" y="1474" type="curve" smooth="yes"/>
    </contour>
  </outline>
</glyph>
<glyph name="g" format="1">
  <advance width="1157"/>
  <unicode hex="0067"/>
  <outline>
    <contour>
      <point x="564" y="-476" type="curve" smooth="yes"/>
      <point x="848" y="-476"/>
      <point x="1043" y="-331"/>
      <point x="1043" y="24" type="curve" smooth="yes"/>
      <point x="1043" y="1023" type="line"/>
      <point x="862" y="1023" type="line"/>
      <point x="842" y="885" type="line"/>
      <point x="779" y="980"/>
      <point x="680" y="1047"/>
      <point x="542" y="1047" type="curve" smooth="yes"/>
      <point x="280" y="1047"/>
      <point x="88" y="864"/>
      <point x="88" y="521" type="curve" smooth="yes"/>
      <point x="88" y="179"/>
      <point x="260" y="-24"/>
      <point x="543" y="-24" type="curve" smooth="yes"/>
      <point x="667" y="-24"/>
      <point x="765" y="19"/>
      <point x="831" y="97" type="curve"/>
      <point x="831" y="28" type="line" smooth="yes"/>
      <point x="831" y="-187"/>
      <point x="773" y="-314"/>
      <point x="567" y="-317" type="curve" smooth="yes"/>
      <point x="410" y="-319"/>
      <point x="324" y="-257"/>
      <point x="262" y="-178" type="curve"/>
      <point x="147" y="-296" type="line"/>
      <point x="225" y="-393"/>
      <point x="378" y="-476"/>
    </contour>
    <contour>
      <point x="556" y="126" type="curve" smooth="yes"/>
      <point x="385" y="126"/>
      <point x="304" y="257"/>
      <point x="303" y="520" type="curve" smooth="yes"/>
      <point x="302" y="758"/>
      <point x="395" y="897"/>
      <point x="555" y="897" type="curve" smooth="yes"/>
      <point x="691" y="897"/>
      <point x="832" y="847"/>
      <point x="832" y="482" type="curve" smooth="yes"/>
      <point x="832" y="259"/>
      <point x="775" y="126"/>
    </contour>
    <contour>
      <point x="548" y="1023" type="move" name="top"/>
    </contour>
  </outline>
</glyph>
<glyph name="h" format="1">
  <advance width="1135"/>
  <unicode hex="0068"/>
  <outline>
    <contour>
      <point x="124" y="0" type="line"/>
      <point x="337" y="0" type="line"/>
      <point x="337" y="537" type="line"/>
      <point x="345" y="724"/>
      <point x="409" y="896"/>
      <point x="611" y="896" type="curve" smooth="yes"/>
      <point x="759" y="896"/>
      <point x="809" y="801"/>
      <point x="809" y="602" type="curve" smooth="yes"/>
      <point x="809" y="0" type="line"/>
      <point x="1021" y="0" type="line"/>
      <point x="1021" y="595" type="line" smooth="yes"/>
      <point x="1021" y="801"/>
      <point x="980" y="1044"/>
      <point x="657" y="1044" type="curve" smooth="yes"/>
      <point x="509" y="1044"/>
      <point x="406" y="989"/>
      <point x="337" y="891" type="curve"/>
      <point x="337" y="1474" type="line"/>
      <point x="124" y="1474" type="line"/>
    </contour>
    <contour>
      <point x="587" y="0" type="move" name="bot"/>
    </contour>
    <contour>
      <point x="705" y="1323" type="move" name="top"/>
    </contour>
  </outline>
</glyph>
<glyph name="i" format="1">
  <advance width="470"/>
  <unicode hex="0069"/>
  <outline>
    <contour>
      <point x="137" y="1023" type="line"/>
      <point x="137" y="0" type="line"/>
      <point x="349" y="0" type="line"/>
      <point x="349" y="1023" type="line"/>
    </contour>
    <contour>
      <point x="133" y="1474" type="line"/>
      <point x="133" y="1234" type="line"/>
      <point x="351" y="1234" type="line"/>
      <point x="351" y="1474" type="line"/>
    </contour>
  </outline>
</glyph>
<glyph name="k" format="1">
  <advance width="1063"/>
  <unicode hex="006B"/>
  <outline>
    <contour>
      <point x="124" y="1474" type="line"/>
      <point x="124" y="0" type="line"/>
      <point x="337" y="0" type="line"/>
      <point x="337" y="334" type="line"/>
      <point x="510" y="501" type="line"/>
      <point x="834" y="0" type="line"/>
      <point x="1073" y="0" type="line"/>
      <point x="649" y="635" type="line"/>
      <point x="1053" y="1023" type="line"/>
      <point x="814" y="1023" type="line"/>
      <point x="337" y="559" type="line"/>
      <point x="337" y="1474" type="line"/>
    </contour>
  </outline>
</glyph>
<glyph name="l" format="1">
  <advance width="485"/>
  <unicode hex="006C"/>
  <outline>
    <contour>
      <point x="139" y="0" type="line"/>
      <point x="351" y="0" type="line"/>
      <point x="351" y="1474" type="line"/>
      <point x="139" y="1474" type="line"/>
    </contour>
    <contour>
      <point x="249" y="0" type="move" name="bot"/>
    </contour>
    <contour>
      <point x="346" y="1023" type="move" name="caron.alt"/>
    </contour>
    <contour>
      <point x="308" y="1474" type="move" name="top"/>
    </contour>
  </outline>
</glyph>
<glyph name="m" format="1">
  <advance width="1820"/>
  <unicode hex="006D"/>
  <outline>
    <contour>
      <point x="1168" y="1047"/>
      <point x="1053" y="977"/>
      <point x="987" y="844" type="curve"/>
      <point x="944" y="960"/>
      <point x="852" y="1047"/>
      <point x="657" y="1047" type="curve" smooth="yes"/>
      <point x="508" y="1047"/>
      <point x="405" y="990"/>
      <point x="336" y="891" type="curve"/>
      <point x="336" y="1023" type="line"/>
      <point x="124" y="1023" type="line"/>
      <point x="124" y="0" type="line"/>
      <point x="336" y="0" type="line"/>
      <point x="336" y="491" type="line" smooth="yes"/>
      <point x="336" y="695"/>
      <point x="392" y="897"/>
      <point x="611" y="897" type="curve" smooth="yes"/>
      <point x="759" y="897"/>
      <point x="809" y="801"/>
      <point x="809" y="602" type="curve" smooth="yes"/>
      <point x="809" y="0" type="line"/>
      <point x="1021" y="0" type="line"/>
      <point x="1021" y="497" type="line" smooth="yes"/>
      <point x="1021" y="701"/>
      <point x="1073" y="897"/>
      <point x="1296" y="897" type="curve" smooth="yes"/>
      <point x="1444" y="897"/>
      <point x="1494" y="801"/>
      <point x="1494" y="602" type="curve" smooth="yes"/>
      <point x="1494" y="0" type="line"/>
      <point x="1706" y="0" type="line"/>
      <point x="1706" y="595" type="line" smooth="yes"/>
      <point x="1706" y="801"/>
      <point x="1665" y="1047"/>
      <point x="1342" y="1047" type="curve" smooth="yes"/>
    </contour>
  </outline>
</glyph>
<glyph name="n" format="1">
  <advance width="1135"/>
  <unicode hex="006E"/>
  <outline>
    <contour>
      <point x="509" y="1047"/>
      <point x="405" y="991"/>
      <point x="336" y="892" type="curve"/>
      <point x="336" y="1023" type="line"/>
      <point x="124" y="1023" type="line"/>
      <point x="124" y="0" type="line"/>
      <point x="336" y="0" type="line"/>
      <point x="336" y="491" type="line" smooth="yes"/>
      <point x="336" y="685"/>
      <point x="397" y="897"/>
      <point x="616" y="897" type="curve" smooth="yes"/>
      <point x="764" y="897"/>
      <point x="809" y="796"/>
      <point x="809" y="597" type="curve" smooth="yes"/>
      <point x="809" y="0" type="line"/>
      <point x="1021" y="0" type="line"/>
      <point x="1021" y="595" type="line" smooth="yes"/>
      <point x="1021" y="801"/>
      <point x="980" y="1047"/>
      <point x="657" y="1047" type="curve" smooth="yes"/>
    </contour>
    <contour>
      <point x="621" y="1023" type="move" name="top"/>
    </contour>
  </outline>
</glyph>
<glyph name="o" format="1">
  <advance width="1112"/>
  <unicode hex="006F"/>
  <outline>
    <contour>
      <point x="556" y="126" type="curve" smooth="yes"/>
      <point x="350" y="126"/>
      <point x="309" y="322"/>
      <point x="309" y="512" type="curve" smooth="yes"/>
      <point x="309" y="702"/>
      <point x="350" y="897"/>
      <point x="556" y="897" type="curve" smooth="yes"/>
      <point x="762" y="897"/>
      <point x="803" y="702"/>
      <point x="803" y="512" type="curve" smooth="yes"/>
      <point x="803" y="322"/>
      <point x="762" y="126"/>
    </contour>
    <contour>
      <point x="556" y="-24" type="curve" smooth="yes"/>
      <point x="842" y="-24"/>
      <point x="1020" y="158"/>
      <point x="1020" y="512" type="curve" smooth="yes"/>
      <point x="1020" y="866"/>
      <point x="842" y="1047"/>
      <point x="556" y="1047" type="curve" smooth="yes"/>
      <point x="270" y="1047"/>
      <point x="92" y="866"/>
      <point x="92" y="512" type="curve" smooth="yes"/>
      <point x="92" y="158"/>
      <point x="270" y="-24"/>
    </contour>
    <contour>
      <point x="557" y="1023" type="move" name="top"/>
    </contour>
  </outline>
</glyph>
<glyph name="p" format="1">
  <advance width="1158"/>
  <unicode hex="0070"/>
  <outline>
    <contour>
      <point x="487" y="1047"/>
      <point x="387" y="978"/>
      <point x="324" y="882" type="curve"/>
      <point x="310" y="1023" type="line"/>
      <point x="124" y="1023" type="line"/>
      <point x="124" y="-370" type="line"/>
      <point x="336" y="-370" type="line"/>
      <point x="336" y="99" type="line"/>
      <point x="403" y="20"/>
      <point x="502" y="-24"/>
      <point x="627" y="-24" type="curve" smooth="yes"/>
      <point x="910" y="-24"/>
      <point x="1070" y="169"/>
      <point x="1070" y="521" type="curve" smooth="yes"/>
      <point x="1070" y="868"/>
      <point x="888" y="1047"/>
      <point x="626" y="1047" type="curve" smooth="yes"/>
    </contour>
    <contour>
      <point x="778" y="897"/>
      <point x="853" y="761"/>
      <point x="853" y="518" type="curve" smooth="yes"/>
      <point x="853" y="254"/>
      <point x="784" y="126"/>
      <point x="612" y="126" type="curve" smooth="yes"/>
      <point x="380" y="126"/>
      <point x="336" y="275"/>
      <point x="336" y="522" type="curve" smooth="yes"/>
      <point x="336" y="834"/>
      <point x="483" y="897"/>
      <point x="613" y="897" type="curve" smooth="yes"/>
    </contour>
  </outline>
</glyph>
<glyph name="q" format="1">
  <advance width="1155"/>
  <unicode hex="0071"/>
  <outline>
    <contour>
      <point x="270" y="1047"/>
      <point x="88" y="868"/>
      <point x="88" y="521" type="curve" smooth="yes"/>
      <point x="88" y="169"/>
      <point x="248" y="-24"/>
      <point x="531" y="-24" type="curve" smooth="yes"/>
      <point x="656" y="-24"/>
      <point x="755" y="20"/>
      <point x="822" y="99" type="curve"/>
      <point x="822" y="-350" type="line"/>
      <point x="1034" y="-350" type="line"/>
      <point x="1034" y="1023" type="line"/>
      <point x="848" y="1023" type="line"/>
      <point x="834" y="882" type="line"/>
      <point x="771" y="978"/>
      <point x="671" y="1047"/>
      <point x="532" y="1047" type="curve" smooth="yes"/>
    </contour>
    <contour>
      <point x="675" y="897"/>
      <point x="822" y="834"/>
      <point x="822" y="522" type="curve" smooth="yes"/>
      <point x="822" y="275"/>
      <point x="778" y="126"/>
      <point x="546" y="126" type="curve" smooth="yes"/>
      <point x="374" y="126"/>
      <point x="305" y="254"/>
      <point x="305" y="518" type="curve" smooth="yes"/>
      <point x="305" y="761"/>
      <point x="380" y="897"/>
      <point x="545" y="897" type="curve" smooth="yes"/>
    </contour>
  </outline>
</glyph>
<glyph name="r" format="1">
  <advance width="676"/>
  <unicode hex="0072"/>
  <outline>
    <contour>
      <point x="506" y="1035"/>
      <point x="406" y="984"/>
      <point x="334" y="865" type="curve"/>
      <point x="334" y="1023" type="line"/>
      <point x="122" y="1023" type="line"/>
      <point x="122" y="0" type="line"/>
      <point x="334" y="0" type="line"/>
      <point x="334" y="502" type="line" smooth="yes"/>
      <point x="334" y="687"/>
      <point x="417" y="847"/>
      <point x="636" y="847" type="curve"/>
      <point x="636" y="1035" type="line"/>
    </contour>
    <contour>
      <point x="442" y="1023" type="move" name="top"/>
    </contour>
  </outline>
</glyph>
<glyph name="s" format="1">
  <advance width="931"/>
  <unicode hex="0073"/>
  <outline>
    <contour>
      <point x="249" y="1047"/>
      <point x="92" y="946"/>
      <point x="92" y="761" type="curve" smooth="yes"/>
      <point x="92" y="557"/>
      <point x="186" y="504"/>
      <point x="412" y="452" type="curve" smooth="yes"/>
      <point x="658" y="395"/>
      <point x="685" y="391"/>
      <point x="683" y="260" type="curve" smooth="yes"/>
      <point x="681" y="155"/>
      <point x="605" y="126"/>
      <point x="478" y="126" type="curve" smooth="yes"/>
      <point x="315" y="126"/>
      <point x="268" y="160"/>
      <point x="218" y="288" type="curve"/>
      <point x="63" y="224" type="line"/>
      <point x="115" y="33"/>
      <point x="280" y="-24"/>
      <point x="463" y="-24" type="curve" smooth="yes"/>
      <point x="754" y="-24"/>
      <point x="866" y="86"/>
      <point x="866" y="286" type="curve" smooth="yes"/>
      <point x="866" y="484"/>
      <point x="768" y="548"/>
      <point x="502" y="608" type="curve" smooth="yes"/>
      <point x="338" y="645"/>
      <point x="287" y="661"/>
      <point x="290" y="761" type="curve" smooth="yes"/>
      <point x="293" y="858"/>
      <point x="332" y="897"/>
      <point x="490" y="897" type="curve" smooth="yes"/>
      <point x="616" y="897"/>
      <point x="669" y="870"/>
      <point x="723" y="774" type="curve"/>
      <point x="723" y="775"/>
      <point x="853" y="849"/>
      <point x="853" y="849" type="curve"/>
      <point x="780" y="996"/>
      <point x="666" y="1047"/>
      <point x="484" y="1047" type="curve" smooth="yes"/>
    </contour>
    <contour>
      <point x="490" y="1023" type="move" name="top"/>
    </contour>
  </outline>
</glyph>
<glyph name="t" format="1">
  <advance width="693"/>
  <unicode hex="0074"/>
  <outline>
    <contour>
      <point x="484" y="-16" type="curve" smooth="yes"/>
      <point x="549" y="-16"/>
      <point x="619" y="1"/>
      <point x="684" y="32" type="curve"/>
      <point x="650" y="173" type="line"/>
      <point x="602" y="153"/>
      <point x="554" y="141"/>
      <point x="519" y="141" type="curve" smooth="yes"/>
      <point x="445" y="141"/>
      <point x="392" y="183"/>
      <point x="392" y="311" type="curve" smooth="yes"/>
      <point x="392" y="879" type="line"/>
      <point x="617" y="879" type="line"/>
      <point x="617" y="1023" type="line"/>
      <point x="392" y="1023" type="line"/>
      <point x="392" y="1394" type="line"/>
      <point x="189" y="1340" type="line"/>
      <point x="181" y="1023" type="line"/>
      <point x="37" y="1023" type="line"/>
      <point x="37" y="879" type="line"/>
      <point x="180" y="879" type="line"/>
      <point x="180" y="298" type="line" smooth="yes"/>
      <point x="180" y="61"/>
      <point x="323" y="-16"/>
    </contour>
    <contour>
      <point x="397" y="0" type="move" name="bot"/>
    </contour>
    <contour>
      <point x="346" y="1023" type="move" name="caron.alt"/>
    </contour>
    <contour>
      <point x="299" y="1283" type="move" name="top"/>
    </contour>
  </outline>
</glyph>
<glyph name="u" format="1">
  <advance width="1135"/>
  <unicode hex="0075"/>
  <outline>
    <contour>
      <point x="478" y="-24" type="curve" smooth="yes"/>
      <point x="626" y="-24"/>
      <point x="729" y="31"/>
      <point x="799" y="129" type="curve"/>
      <point x="799" y="0" type="line"/>
      <point x="1011" y="0" type="line"/>
      <point x="1011" y="1023" type="line"/>
      <point x="799" y="1023" type="line"/>
      <point x="799" y="532" type="line" smooth="yes"/>
      <point x="799" y="328"/>
      <point x="738" y="126"/>
      <point x="519" y="126" type="curve" smooth="yes"/>
      <point x="374" y="126"/>
      <point x="326" y="222"/>
      <point x="326" y="421" type="curve" smooth="yes"/>
      <point x="326" y="1023" type="line"/>
      <point x="114" y="1023" type="line"/>
      <point x="114" y="428" type="line" smooth="yes"/>
      <point x="114" y="220"/>
      <point x="155" y="-24"/>
    </contour>
    <contour>
      <point x="570" y="1023" type="move" name="top"/>
    </contour>
  </outline>
</glyph>
<glyph name="v" format="1">
  <advance width="959"/>
  <unicode hex="0076"/>
  <outline>
    <contour>
      <point x="381" y="0" type="line"/>
      <point x="559" y="0" type="line"/>
      <point x="947" y="1023" type="line"/>
      <point x="744" y="1023" type="line"/>
      <point x="482" y="271" type="line"/>
      <point x="225" y="1023" type="line"/>
      <point x="12" y="1023" type="line"/>
    </contour>
  </outline>
</glyph>
<glyph name="w" format="1">
  <advance width="1499"/>
  <unicode hex="0077"/>
  <outline>
    <contour>
      <point x="335" y="0" type="line"/>
      <point x="514" y="0" type="line"/>
      <point x="746" y="657" type="line"/>
      <point x="967" y="0" type="line"/>
      <point x="1145" y="0" type="line"/>
      <point x="1503" y="1023" type="line"/>
      <point x="1294" y="1023" type="line"/>
      <point x="1067" y="271" type="line"/>
      <point x="811" y="1023" type="line"/>
      <point x="699" y="1023" type="line"/>
      <point x="436" y="271" type="line"/>
      <point x="214" y="1023" type="line"/>
      <point x="-7" y="1023" type="line"/>
    </contour>
    <contour>
      <point x="752" y="1023" type="move" name="top"/>
    </contour>
  </outline>
</glyph>
<glyph name="x" format="1">
  <advance width="979"/>
  <unicode hex="0078"/>
  <outline>
    <contour>
      <point x="5" y="0" type="line"/>
      <point x="229" y="0" type="line"/>
      <point x="486" y="359" type="line"/>
      <point x="749" y="0" type="line"/>
      <point x="982" y="0" type="line"/>
      <point x="609" y="509" type="line"/>
      <point x="980" y="1023" type="line"/>
      <point x="756" y="1023" type="line"/>
      <point x="501" y="656" type="line"/>
      <point x="232" y="1023" type="line"/>
      <point x="-1" y="1023" type="line"/>
      <point x="376" y="508" type="line"/>
    </contour>
  </outline>
</glyph>
<glyph name="y" format="1">
  <advance width="990"/>
  <unicode hex="0079"/>
  <outline>
    <contour>
      <point x="765" y="1023" type="line"/>
      <point x="505" y="353" type="line"/>
      <point x="241" y="1023" type="line"/>
      <point x="23" y="1023" type="line"/>
      <point x="396" y="135" type="line"/>
      <point x="383" y="94" type="line" smooth="yes"/>
      <point x="322" y="-98"/>
      <point x="255" y="-135"/>
      <point x="140" y="-135" type="curve" smooth="yes"/>
      <point x="122" y="-135"/>
      <point x="101" y="-132"/>
      <point x="79" y="-129" type="curve"/>
      <point x="54" y="-302" type="line"/>
      <point x="91" y="-312"/>
      <point x="130" y="-317"/>
      <point x="163" y="-317" type="curve" smooth="yes"/>
      <point x="381" y="-317"/>
      <point x="484" y="-199"/>
      <point x="591" y="68" type="curve" smooth="yes"/>
      <point x="975" y="1023" type="line"/>
    </contour>
    <contour>
      <point x="502" y="1023" type="move" name="top"/>
    </contour>
  </outline>
</glyph>
<glyph name="z" format="1">
  <advance width="878"/>
  <unicode hex="007A"/>
  <outline>
    <contour>
      <point x="62" y="0" type="line"/>
      <point x="834" y="0" type="line"/>
      <point x="834" y="152" type="line"/>
      <point x="299" y="152" type="line"/>
      <point x="836" y="878" type="line"/>
      <point x="836" y="1023" type="line"/>
      <point x="86" y="1023" type="line"/>
      <point x="86" y="870" type="line"/>
      <point x="587" y="870" type="line"/>
      <point x="62" y="144" type="line"/>
    </contour>
    <contour>
      <point x="475" y="0" type="move" name="bot"/>
    </contour>
    <contour>
      <point x="485" y="1023" type="move" name="top"/>
    </contour>
  </outline>
</glyph>
<glyph name="braceleft" format="1">
  <advance width="644"/>
  <unicode hex="007B"/>
  <outline>
    <contour>
      <point x="628" y="-130" type="curve"/>
      <point x="628" y="3" type="line"/>
      <point x="411" y="3"/>
      <point x="387" y="48"/>
      <point x="387" y="381" type="curve" smooth="yes"/>
      <point x="387" y="563"/>
      <point x="347" y="676"/>
      <point x="218" y="707" type="curve"/>
      <point x="347" y="738"/>
      <point x="387" y="851"/>
      <point x="387" y="1033" type="curve" smooth="yes"/>
      <point x="387" y="1366"/>
      <point x="411" y="1411"/>
      <point x="628" y="1411" type="curve"/>
      <point x="628" y="1544" type="line"/>
      <point x="232" y="1544"/>
      <point x="158" y="1417"/>
      <point x="158" y="1046" type="curve" smooth="yes"/>
      <point x="158" y="915"/>
      <point x="160" y="789"/>
      <point x="-5" y="777" type="curve"/>
      <point x="-5" y="637" type="line"/>
      <point x="160" y="625"/>
      <point x="158" y="499"/>
      <point x="158" y="368" type="curve" smooth="yes"/>
      <point x="158" y="-3"/>
      <point x="232" y="-130"/>
    </contour>
  </outline>
</glyph>
<glyph name="braceright" format="1">
  <advance width="644"/>
  <unicode hex="007D"/>
  <outline>
    <contour>
      <point x="-5" y="-130" type="line"/>
      <point x="391" y="-130"/>
      <point x="465" y="-3"/>
      <point x="465" y="368" type="curve" smooth="yes"/>
      <point x="465" y="499"/>
      <point x="463" y="625"/>
      <point x="628" y="637" type="curve"/>
      <point x="628" y="777" type="line"/>
      <point x="463" y="789"/>
      <point x="465" y="915"/>
      <point x="465" y="1046" type="curve" smooth="yes"/>
      <point x="465" y="1417"/>
      <point x="391" y="1544"/>
      <point x="-5" y="1544" type="curve"/>
      <point x="-5" y="1411" type="line"/>
      <point x="212" y="1411"/>
      <point x="236" y="1366"/>
      <point x="236" y="1033" type="curve" smooth="yes"/>
      <point x="236" y="851"/>
      <point x="276" y="738"/>
      <point x="405" y="707" type="curve"/>
      <point x="276" y="676"/>
      <point x="236" y="563"/>
      <point x="236" y="381" type="curve" smooth="yes"/>
      <point x="236" y="48"/>
      <point x="212" y="3"/>
      <point x="-5" y="3" type="curve"/>
    </contour>
  </outline>
</glyph>
<glyph name="asciitilde" format="1">
  <advance width="962"/>
  <unicode hex="007E"/>
  <outline>
    <contour>
      <point x="787" y="670" type="curve" smooth="yes"/>
      <point x="894" y="676"/>
      <point x="942" y="784"/>
      <point x="951" y="976" type="curve"/>
      <point x="773" y="976" type="line"/>
      <point x="755" y="905"/>
      <point x="751" y="876"/>
      <point x="694" y="876" type="curve" smooth="yes"/>
      <point x="620" y="876"/>
      <point x="357" y="986"/>
      <point x="205" y="976" type="curve" smooth="yes"/>
      <point x="113" y="970"/>
      <point x="26" y="914"/>
      <point x="11" y="677" type="curve"/>
      <point x="189" y="677" type="line"/>
      <point x="210" y="768"/>
      <point x="235" y="775"/>
      <point x="267" y="775" type="curve" smooth="yes"/>
      <point x="364" y="775"/>
      <point x="595" y="660"/>
    </contour>
  </outline>
</glyph>
<glyph name="sterling" format="1">
  <advance width="1168"/>
  <unicode hex="00A3"/>
  <outline>
    <contour>
      <point x="219" y="-26" type="line"/>
      <point x="431" y="17"/>
      <point x="555.553" y="42"/>
      <point x="677" y="42" type="curve" smooth="yes"/>
      <point x="807.432" y="42"/>
      <point x="878.668" y="20.5116"/>
      <point x="979" y="0" type="curve"/>
      <point x="1020" y="176" type="line"/>
      <point x="932" y="199"/>
      <point x="849" y="230"/>
      <point x="739" y="230" type="curve" smooth="yes"/>
      <point x="615" y="230"/>
      <point x="535" y="214"/>
      <point x="352" y="147" type="curve"/>
      <point x="392" y="226"/>
      <point x="449" y="318"/>
      <point x="449" y="502" type="curve" smooth="yes"/>
      <point x="449" y="556"/>
      <point x="441" y="604"/>
      <point x="435" y="676" type="curve"/>
      <point x="773" y="676" type="line"/>
      <point x="773" y="829" type="line"/>
      <point x="426" y="829" type="line"/>
      <point x="421" y="886"/>
      <point x="409" y="955"/>
      <point x="409" y="1007" type="curve" smooth="yes"/>
      <point x="409" y="1221"/>
      <point x="484" y="1313"/>
      <point x="651" y="1313" type="curve" smooth="yes"/>
      <point x="733" y="1313"/>
      <point x="790" y="1295"/>
      <point x="826" y="1126" type="curve"/>
      <point x="1003" y="1152" type="line"/>
      <point x="971" y="1372"/>
      <point x="878" y="1489"/>
      <point x="645" y="1489" type="curve" smooth="yes"/>
      <point x="359" y="1489"/>
      <point x="199" y="1321"/>
      <point x="199" y="988" type="curve" smooth="yes"/>
      <point x="199" y="942"/>
      <point x="211" y="879"/>
      <point x="215" y="829" type="curve"/>
      <point x="52" y="829" type="line"/>
      <point x="52" y="676" type="line"/>
      <point x="228" y="676" type="line"/>
      <point x="237" y="636"/>
      <point x="250" y="574"/>
      <point x="250" y="525" type="curve" smooth="yes"/>
      <point x="250" y="341"/>
      <point x="173" y="172"/>
      <point x="125" y="97" type="curve"/>
    </contour>
  </outline>
</glyph>
<glyph name="yen" format="1">
  <advance width="1162"/>
  <unicode hex="00A5"/>
  <outline>
    <contour>
      <point x="216" y="304" type="line"/>
      <point x="216" y="304"/>
      <point x="950" y="304"/>
      <point x="950" y="304" type="curve"/>
      <point x="950" y="432" type="line"/>
      <point x="950" y="432"/>
      <point x="216" y="432"/>
      <point x="216" y="432" type="curve"/>
    </contour>
    <contour>
      <point x="216" y="542" type="line"/>
      <point x="216" y="542"/>
      <point x="950" y="542"/>
      <point x="950" y="542" type="curve"/>
      <point x="950" y="669" type="line"/>
      <point x="950" y="669"/>
      <point x="216" y="669"/>
      <point x="216" y="669" type="curve"/>
    </contour>
    <component base="Y"/>
  </outline>
</glyph>
<glyph name="section" format="1">
  <advance width="1005"/>
  <unicode hex="00A7"/>
  <outline>
    <contour>
      <point x="541" y="-24" type="curve" smooth="yes"/>
      <point x="772" y="-24"/>
      <point x="918" y="76"/>
      <point x="918" y="265" type="curve" smooth="yes"/>
      <point x="918" y="367"/>
      <point x="846" y="433"/>
      <point x="771" y="483" type="curve"/>
      <point x="875" y="588"/>
      <point x="878" y="645"/>
      <point x="885" y="712" type="curve" smooth="yes"/>
      <point x="914" y="994"/>
      <point x="345" y="1060"/>
      <point x="358" y="1215" type="curve"/>
      <point x="360" y="1274"/>
      <point x="414" y="1317"/>
      <point x="529" y="1319" type="curve" smooth="yes"/>
      <point x="611" y="1320"/>
      <point x="691" y="1304"/>
      <point x="747" y="1198" type="curve"/>
      <point x="747" y="1199"/>
      <point x="884" y="1284"/>
      <point x="884" y="1284" type="curve"/>
      <point x="812" y="1436"/>
      <point x="707" y="1489"/>
      <point x="530" y="1489" type="curve" smooth="yes"/>
      <point x="311" y="1489"/>
      <point x="147" y="1391"/>
      <point x="147" y="1203" type="curve" smooth="yes"/>
      <point x="147" y="1085"/>
      <point x="225" y="1028"/>
      <point x="293" y="987" type="curve"/>
      <point x="179" y="895"/>
      <point x="155" y="823"/>
      <point x="154" y="755" type="curve" smooth="yes"/>
      <point x="149" y="429"/>
      <point x="753" y="406"/>
      <point x="728" y="247" type="curve" smooth="yes"/>
      <point x="720" y="197"/>
      <point x="679" y="152"/>
      <point x="544" y="152" type="curve" smooth="yes"/>
      <point x="422" y="152"/>
      <point x="329" y="196"/>
      <point x="280" y="328" type="curve"/>
      <point x="127" y="273" type="line"/>
      <point x="168" y="49"/>
      <point x="376" y="-24"/>
    </contour>
    <contour>
      <point x="622" y="558" type="curve"/>
      <point x="354" y="675"/>
      <point x="240" y="725"/>
      <point x="418" y="916" type="curve"/>
      <point x="712" y="791"/>
      <point x="752" y="739"/>
    </contour>
  </outline>
</glyph>
<glyph name="dieresis" format="1">
  <advance width="860"/>
  <unicode hex="00A8"/>
  <outline>
    <contour>
      <point x="75" y="1164" type="line"/>
      <point x="311" y="1164" type="line"/>
      <point x="311" y="1398" type="line"/>
      <point x="75" y="1398" type="line"/>
    </contour>
    <contour>
      <point x="524" y="1164" type="line"/>
      <point x="760" y="1164" type="line"/>
      <point x="760" y="1398" type="line"/>
      <point x="524" y="1398" type="line"/>
    </contour>
    <contour>
      <point x="418" y="1023" type="move" name="_top"/>
    </contour>
  </outline>
</glyph>
<glyph name="registered" format="1">
  <advance width="1702"/>
  <unicode hex="00AE"/>
  <outline>
    <contour>
      <point x="850" y="1497" type="curve" smooth="yes"/>
      <point x="451" y="1497"/>
      <point x="123" y="1205"/>
      <point x="123" y="774" type="curve" smooth="yes"/>
      <point x="123" y="335"/>
      <point x="451" y="53"/>
      <point x="850" y="53" type="curve" smooth="yes"/>
      <point x="1251" y="53"/>
      <point x="1579" y="375"/>
      <point x="1579" y="774" type="curve" smooth="yes"/>
      <point x="1579" y="1175"/>
      <point x="1251" y="1497"/>
    </contour>
    <contour>
      <point x="204" y="773" type="curve" smooth="yes"/>
      <point x="204" y="1154"/>
      <point x="483" y="1432"/>
      <point x="850" y="1432" type="curve" smooth="yes"/>
      <point x="1218" y="1432"/>
      <point x="1498" y="1124"/>
      <point x="1498" y="773" type="curve" smooth="yes"/>
      <point x="1498" y="423"/>
      <point x="1217" y="118"/>
      <point x="849" y="118" type="curve" smooth="yes"/>
      <point x="482" y="118"/>
      <point x="204" y="383"/>
    </contour>
    <contour>
      <point x="702" y="1157" type="line"/>
      <point x="702" y="867" type="line"/>
      <point x="829" y="867" type="line" smooth="yes"/>
      <point x="947" y="867"/>
      <point x="1052" y="864"/>
      <point x="1052" y="1015" type="curve" smooth="yes"/>
      <point x="1052" y="1139"/>
      <point x="960" y="1157"/>
      <point x="848" y="1157" type="curve" smooth="yes"/>
    </contour>
    <contour>
      <point x="857" y="1248" type="line" smooth="yes"/>
      <point x="1071" y="1248"/>
      <point x="1179" y="1173"/>
      <point x="1179" y="1017" type="curve" smooth="yes"/>
      <point x="1179" y="900"/>
      <point x="1122" y="827"/>
      <point x="1014" y="790" type="curve"/>
      <point x="1200" y="379" type="line"/>
      <point x="1067" y="379" type="line"/>
      <point x="892" y="770" type="line"/>
      <point x="699" y="770" type="line"/>
      <point x="699" y="381" type="line"/>
      <point x="578" y="381" type="line"/>
      <point x="578" y="1248" type="line"/>
    </contour>
  </outline>
</glyph>
<glyph name="macron" format="1">
  <advance width="724"/>
  <unicode hex="00AF"/>
  <outline>
    <contour>
      <point x="151" y="1178" type="line"/>
      <point x="605" y="1178" type="line"/>
      <point x="605" y="1328" type="line"/>
      <point x="151" y="1328" type="line"/>
    </contour>
    <contour>
      <point x="363" y="1023" type="move" name="_top"/>
    </contour>
  </outline>
</glyph>
<glyph name="plusminus" format="1">
  <advance width="860"/>
  <unicode hex="00B1"/>
  <outline>
    <contour>
      <point x="353" y="423" type="line"/>
      <point x="505" y="423" type="line"/>
      <point x="505" y="651" type="line"/>
      <point x="730" y="651" type="line"/>
      <point x="730" y="800" type="line"/>
      <point x="505" y="800" type="line"/>
      <point x="505" y="1023" type="line"/>
      <point x="353" y="1023" type="line"/>
      <point x="353" y="800" type="line"/>
      <point x="128" y="800" type="line"/>
      <point x="128" y="651" type="line"/>
      <point x="353" y="651" type="line"/>
    </contour>
    <contour>
      <point x="127" y="212" type="line"/>
      <point x="730" y="212" type="line"/>
      <point x="730" y="339" type="line"/>
      <point x="127" y="339" type="line"/>
    </contour>
  </outline>
</glyph>
<glyph name="twosuperior" format="1">
  <advance width="1246"/>
  <unicode hex="00B2"/>
  <outline>
    <contour>
      <point x="459" y="1489"/>
      <point x="350" y="1427"/>
      <point x="271" y="1257" type="curve"/>
      <point x="410" y="1195" type="line"/>
      <point x="466" y="1307"/>
      <point x="517" y="1360"/>
      <point x="617" y="1360" type="curve" smooth="yes"/>
      <point x="703" y="1360"/>
      <point x="759" y="1298"/>
      <point x="759" y="1195" type="curve" smooth="yes"/>
      <point x="759" y="891"/>
      <point x="304" y="863"/>
      <point x="301" y="496" type="curve"/>
      <point x="918" y="496" type="line"/>
      <point x="918" y="635" type="line"/>
      <point x="496" y="635" type="line"/>
      <point x="628" y="839"/>
      <point x="925" y="901"/>
      <point x="917" y="1192" type="curve" smooth="yes"/>
      <point x="911" y="1393"/>
      <point x="777" y="1489"/>
      <point x="609" y="1489" type="curve" smooth="yes"/>
    </contour>
  </outline>
</glyph>
<glyph name="threesuperior" format="1">
  <advance width="1246"/>
  <unicode hex="00B3"/>
  <outline>
    <contour>
      <point x="615" y="480" type="curve" smooth="yes"/>
      <point x="848" y="479"/>
      <point x="957" y="627"/>
      <point x="957" y="762" type="curve" smooth="yes"/>
      <point x="957" y="881"/>
      <point x="912" y="999"/>
      <point x="742" y="1043" type="curve"/>
      <point x="878" y="1084"/>
      <point x="912" y="1173"/>
      <point x="910" y="1267" type="curve" smooth="yes"/>
      <point x="907" y="1405"/>
      <point x="789" y="1489"/>
      <point x="609" y="1489" type="curve" smooth="yes"/>
      <point x="466" y="1489"/>
      <point x="379" y="1435"/>
      <point x="300" y="1299" type="curve"/>
      <point x="420" y="1231" type="line"/>
      <point x="464" y="1336"/>
      <point x="532" y="1362"/>
      <point x="600" y="1362" type="curve" smooth="yes"/>
      <point x="681" y="1362"/>
      <point x="744" y="1326"/>
      <point x="747" y="1255" type="curve" smooth="yes"/>
      <point x="751" y="1166"/>
      <point x="719" y="1092"/>
      <point x="536" y="1092" type="curve"/>
      <point x="536" y="980" type="line"/>
      <point x="688" y="980"/>
      <point x="788" y="936"/>
      <point x="782" y="760" type="curve" smooth="yes"/>
      <point x="780" y="673"/>
      <point x="731" y="610"/>
      <point x="604" y="614" type="curve" smooth="yes"/>
      <point x="505" y="618"/>
      <point x="466" y="675"/>
      <point x="434" y="765" type="curve"/>
      <point x="310" y="724" type="line"/>
      <point x="350" y="558"/>
      <point x="465" y="481"/>
    </contour>
  </outline>
</glyph>
<glyph name="acute" format="1">
  <advance width="496"/>
  <unicode hex="00B4"/>
  <outline>
    <contour>
      <point x="5" y="1144" type="line"/>
      <point x="146" y="1144" type="line"/>
      <point x="497" y="1464" type="line"/>
      <point x="207" y="1464" type="line"/>
    </contour>
    <contour>
      <point x="89" y="1023" type="move" name="_top"/>
    </contour>
  </outline>
</glyph>
<glyph name="paragraph" format="1">
  <advance width="1038"/>
  <unicode hex="00B6"/>
  <outline>
    <contour>
      <point x="386" y="0" type="line"/>
      <point x="386" y="799" type="line"/>
      <point x="173" y="799"/>
      <point x="57" y="930"/>
      <point x="57" y="1126" type="curve" smooth="yes"/>
      <point x="57" y="1305"/>
      <point x="147" y="1464"/>
      <point x="547" y="1464" type="curve" smooth="yes"/>
      <point x="1014" y="1464" type="line"/>
      <point x="1014" y="1292" type="line"/>
      <point x="887" y="1292" type="line"/>
      <point x="887" y="0" type="line"/>
      <point x="698" y="0" type="line"/>
      <point x="698" y="799" type="line"/>
      <point x="575" y="799" type="line"/>
      <point x="575" y="0" type="line"/>
    </contour>
  </outline>
</glyph>
<glyph name="periodcentered" format="1">
  <advance width="434"/>
  <unicode hex="00B7"/>
  <outline>
    <contour>
      <point x="85" y="526" type="line"/>
      <point x="345" y="526" type="line"/>
      <point x="345" y="766" type="line"/>
      <point x="85" y="766" type="line"/>
    </contour>
  </outline>
</glyph>
<glyph name="cedilla" format="1">
  <advance width="435"/>
  <unicode hex="00B8"/>
  <outline>
    <contour>
      <point x="204" y="-520" type="curve" smooth="yes"/>
      <point x="324" y="-520"/>
      <point x="380" y="-411"/>
      <point x="380" y="-319" type="curve" smooth="yes"/>
      <point x="380" y="-110" type="line"/>
      <point x="112" y="-110" type="line"/>
      <point x="112" y="-304" type="line"/>
      <point x="231" y="-304" type="line"/>
      <point x="231" y="-399"/>
      <point x="225" y="-425"/>
      <point x="196" y="-425" type="curve" smooth="yes"/>
      <point x="186" y="-425"/>
      <point x="169" y="-420"/>
      <point x="154" y="-416" type="curve"/>
      <point x="154" y="-511" type="line"/>
      <point x="168" y="-517"/>
      <point x="190" y="-520"/>
    </contour>
    <contour>
      <point x="249" y="0" type="move" name="_bot"/>
    </contour>
  </outline>
</glyph>
<glyph name="onesuperior" format="1">
  <advance width="924"/>
  <unicode hex="00B9"/>
  <outline>
    <contour>
      <point x="282" y="1288" type="line"/>
      <point x="433" y="1355" type="line"/>
      <point x="433" y="516" type="line"/>
      <point x="610" y="516" type="line"/>
      <point x="610" y="1492" type="line"/>
      <point x="452" y="1492" type="line"/>
      <point x="239" y="1405" type="line"/>
    </contour>
  </outline>
</glyph>
<glyph name="guillemotright" format="1">
  <advance width="946"/>
  <unicode hex="00BB"/>
  <outline>
    <contour>
      <point x="-7" y="230" type="line"/>
      <point x="448" y="501" type="line"/>
      <point x="448" y="798" type="line"/>
      <point x="-7" y="1069" type="line"/>
      <point x="-7" y="857" type="line"/>
      <point x="300" y="650" type="line"/>
      <point x="-7" y="441" type="line"/>
    </contour>
    <contour>
      <point x="483" y="230" type="line"/>
      <point x="938" y="501" type="line"/>
      <point x="938" y="798" type="line"/>
      <point x="483" y="1069" type="line"/>
      <point x="483" y="857" type="line"/>
      <point x="790" y="650" type="line"/>
      <point x="483" y="441" type="line"/>
    </contour>
  </outline>
</glyph>
<glyph name="onehalf" format="1">
  <advance width="1361"/>
  <unicode hex="00BD"/>
  <outline>
    <contour>
      <point x="919" y="0" type="line"/>
      <point x="1412" y="0" type="line"/>
      <point x="1412" y="119" type="line"/>
      <point x="1143" y="120" type="line"/>
      <point x="1311" y="266"/>
      <point x="1431" y="344"/>
      <point x="1411" y="516" type="curve" smooth="yes"/>
      <point x="1394" y="658"/>
      <point x="1278" y="712"/>
      <point x="1161" y="712" type="curve" smooth="yes"/>
      <point x="1055" y="712"/>
      <point x="941" y="658"/>
      <point x="898" y="537" type="curve"/>
      <point x="1032" y="470" type="line"/>
      <point x="1050" y="532"/>
      <point x="1081" y="573"/>
      <point x="1152" y="573" type="curve" smooth="yes"/>
      <point x="1217" y="573"/>
      <point x="1244" y="536"/>
      <point x="1246" y="487" type="curve" smooth="yes"/>
      <point x="1250" y="379"/>
      <point x="1110" y="293"/>
      <point x="919" y="123" type="curve"/>
    </contour>
    <contour>
      <point x="184" y="769" type="line"/>
      <point x="353" y="769" type="line"/>
      <point x="353" y="1464" type="line"/>
      <point x="199" y="1464" type="line"/>
      <point x="41" y="1390" type="line"/>
      <point x="72" y="1256" type="line"/>
      <point x="184" y="1316" type="line"/>
    </contour>
    <contour>
      <point x="146" y="-14" type="line"/>
      <point x="1381" y="1415" type="line"/>
      <point x="1265" y="1513" type="line"/>
      <point x="29" y="84" type="line"/>
    </contour>
  </outline>
</glyph>
<glyph name="threequarters" format="1">
  <advance width="1441"/>
  <unicode hex="00BE"/>
  <outline>
    <contour>
      <point x="611" y="1303" type="curve" smooth="yes"/>
      <point x="611" y="1411"/>
      <point x="505" y="1481"/>
      <point x="363" y="1481" type="curve" smooth="yes"/>
      <point x="281" y="1481"/>
      <point x="176" y="1441"/>
      <point x="146" y="1359" type="curve"/>
      <point x="250" y="1281" type="line"/>
      <point x="273" y="1321"/>
      <point x="310" y="1354"/>
      <point x="364" y="1354" type="curve" smooth="yes"/>
      <point x="418" y="1354"/>
      <point x="455" y="1333"/>
      <point x="458" y="1295" type="curve" smooth="yes"/>
      <point x="462" y="1237"/>
      <point x="440" y="1204"/>
      <point x="318" y="1202" type="curve"/>
      <point x="318" y="1072" type="line"/>
      <point x="454" y="1072"/>
      <point x="477" y="1024"/>
      <point x="477" y="957" type="curve" smooth="yes"/>
      <point x="477" y="907"/>
      <point x="430" y="874"/>
      <point x="376" y="874" type="curve" smooth="yes"/>
      <point x="330" y="874"/>
      <point x="272" y="889"/>
      <point x="246" y="973" type="curve"/>
      <point x="130" y="910" type="line"/>
      <point x="159" y="791"/>
      <point x="275" y="744"/>
      <point x="369" y="743" type="curve"/>
      <point x="535" y="740"/>
      <point x="633" y="824"/>
      <point x="636" y="954" type="curve" smooth="yes"/>
      <point x="637" y="1006"/>
      <point x="632" y="1098"/>
      <point x="501" y="1145" type="curve"/>
      <point x="582" y="1174"/>
      <point x="611" y="1237"/>
    </contour>
    <contour>
      <point x="324" y="-14" type="line"/>
      <point x="1559" y="1415" type="line"/>
      <point x="1443" y="1513" type="line"/>
      <point x="207" y="84" type="line"/>
    </contour>
    <contour>
      <point x="1280" y="121" type="line"/>
      <point x="1280" y="0" type="line"/>
      <point x="1448" y="0" type="line"/>
      <point x="1448" y="121" type="line"/>
      <point x="1552" y="121" type="line"/>
      <point x="1552" y="243" type="line"/>
      <point x="1448" y="243" type="line"/>
      <point x="1448" y="693" type="line"/>
      <point x="1229" y="693" type="line"/>
      <point x="940" y="220" type="line"/>
      <point x="940" y="121" type="line"/>
    </contour>
    <contour>
      <point x="1110" y="243" type="line"/>
      <point x="1280" y="542" type="line"/>
      <point x="1280" y="243" type="line"/>
    </contour>
  </outline>
</glyph>
<glyph name="AE" format="1">
  <advance width="2030"/>
  <unicode hex="00C6"/>
  <outline>
    <contour>
      <point x="817" y="1464" type="line"/>
      <point x="-47" y="0" type="line"/>
      <point x="193" y="0" type="line"/>
      <point x="410" y="369" type="line"/>
      <point x="974" y="369" type="line"/>
      <point x="974" y="0" type="line"/>
      <point x="2015" y="0" type="line"/>
      <point x="2015" y="168" type="line"/>
      <point x="1192" y="168" type="line"/>
      <point x="1192" y="696" type="line"/>
      <point x="1842" y="696" type="line"/>
      <point x="1843" y="868" type="line"/>
      <point x="1192" y="868" type="line"/>
      <point x="1192" y="1296" type="line"/>
      <point x="2005" y="1296" type="line"/>
      <point x="2005" y="1464" type="line"/>
    </contour>
    <contour>
      <point x="974" y="532" type="line"/>
      <point x="500" y="532" type="line"/>
      <point x="974" y="1378" type="line"/>
    </contour>
  </outline>
</glyph>
<glyph name="Eth" format="1">
  <advance width="1444"/>
  <unicode hex="00D0"/>
  <outline>
    <contour>
      <point x="0" y="808" type="line"/>
      <point x="0" y="681" type="line"/>
      <point x="570" y="681" type="line"/>
      <point x="570" y="808" type="line"/>
    </contour>
    <component base="D"/>
  </outline>
</glyph>
<glyph name="multiply" format="1">
  <advance width="734"/>
  <unicode hex="00D7"/>
  <outline>
    <contour>
      <point x="522" y="181" type="line"/>
      <point x="641" y="300" type="line"/>
      <point x="481" y="460" type="line"/>
      <point x="641" y="620" type="line"/>
      <point x="522" y="739" type="line"/>
      <point x="362" y="579" type="line"/>
      <point x="202" y="739" type="line"/>
      <point x="83" y="620" type="line"/>
      <point x="243" y="460" type="line"/>
      <point x="83" y="300" type="line"/>
      <point x="202" y="181" type="line"/>
      <point x="362" y="341" type="line"/>
    </contour>
  </outline>
</glyph>
<glyph name="Oslash" format="1">
  <advance width="1497"/>
  <unicode hex="00D8"/>
  <outline>
    <contour>
      <point x="235" y="-148" type="line"/>
      <point x="362" y="-214" type="line"/>
      <point x="1252" y="1604" type="line"/>
      <point x="1126" y="1670" type="line"/>
    </contour>
    <component base="O"/>
  </outline>
</glyph>
<glyph name="germandbls" format="1">
  <advance width="1199"/>
  <unicode hex="00DF"/>
  <outline>
    <contour>
      <point x="103" y="0" type="line"/>
      <point x="324" y="0" type="line"/>
      <point x="324" y="1135" type="line" smooth="yes"/>
      <point x="324" y="1258"/>
      <point x="420" y="1339"/>
      <point x="565" y="1337" type="curve" smooth="yes"/>
      <point x="708" y="1335"/>
      <point x="756" y="1282"/>
      <point x="756" y="1209" type="curve" smooth="yes"/>
      <point x="756" y="996"/>
      <point x="431" y="1041"/>
      <point x="431" y="816" type="curve" smooth="yes"/>
      <point x="431" y="569"/>
      <point x="907" y="551"/>
      <point x="903" y="335" type="curve" smooth="yes"/>
      <point x="900" y="199"/>
      <point x="736" y="176"/>
      <point x="441" y="176" type="curve"/>
      <point x="441" y="0" type="line"/>
      <point x="481" y="0" type="line" smooth="yes"/>
      <point x="1043" y="0"/>
      <point x="1122" y="117"/>
      <point x="1125" y="336" type="curve" smooth="yes"/>
      <point x="1129" y="654"/>
      <point x="649" y="725"/>
      <point x="649" y="823" type="curve" smooth="yes"/>
      <point x="649" y="880"/>
      <point x="964" y="926"/>
      <point x="960" y="1203" type="curve" smooth="yes"/>
      <point x="958" y="1370"/>
      <point x="833" y="1487"/>
      <point x="568" y="1492" type="curve" smooth="yes"/>
      <point x="330" y="1496"/>
      <point x="103" y="1373"/>
      <point x="103" y="1151" type="curve" smooth="yes"/>
    </contour>
  </outline>
</glyph>
<glyph name="ae" format="1">
  <advance width="1667"/>
  <unicode hex="00E6"/>
  <outline>
    <contour>
      <point x="1053" y="1047"/>
      <point x="918" y="992"/>
      <point x="848" y="857" type="curve"/>
      <point x="796" y="1012"/>
      <point x="636" y="1047"/>
      <point x="518" y="1047" type="curve" smooth="yes"/>
      <point x="366" y="1047"/>
      <point x="242" y="1011"/>
      <point x="128" y="932" type="curve"/>
      <point x="211" y="799" type="line"/>
      <point x="298" y="855"/>
      <point x="411" y="902"/>
      <point x="533" y="890" type="curve" smooth="yes"/>
      <point x="689" y="875"/>
      <point x="716" y="787"/>
      <point x="719" y="610" type="curve"/>
      <point x="600" y="608" type="line" smooth="yes"/>
      <point x="255" y="602"/>
      <point x="58" y="500"/>
      <point x="74" y="246" type="curve" smooth="yes"/>
      <point x="86" y="53"/>
      <point x="254" y="-24"/>
      <point x="429" y="-24" type="curve" smooth="yes"/>
      <point x="589" y="-24"/>
      <point x="727" y="17"/>
      <point x="826" y="177" type="curve"/>
      <point x="891" y="32"/>
      <point x="1030" y="-24"/>
      <point x="1195" y="-24" type="curve" smooth="yes"/>
      <point x="1369" y="-22"/>
      <point x="1515" y="83"/>
      <point x="1570" y="234" type="curve"/>
      <point x="1422" y="293" type="line"/>
      <point x="1399" y="240"/>
      <point x="1334" y="132"/>
      <point x="1191" y="133" type="curve" smooth="yes"/>
      <point x="1005" y="135"/>
      <point x="940" y="248"/>
      <point x="933" y="476" type="curve"/>
      <point x="1594" y="488" type="line"/>
      <point x="1596" y="505"/>
      <point x="1597" y="563"/>
      <point x="1597" y="572" type="curve" smooth="yes"/>
      <point x="1597" y="844"/>
      <point x="1476" y="1047"/>
      <point x="1191" y="1047" type="curve" smooth="yes"/>
    </contour>
    <contour>
      <point x="721" y="368" type="line" smooth="yes"/>
      <point x="721" y="208"/>
      <point x="599" y="124"/>
      <point x="444" y="132" type="curve" smooth="yes"/>
      <point x="348" y="137"/>
      <point x="296" y="182"/>
      <point x="288" y="251" type="curve" smooth="yes"/>
      <point x="272" y="398"/>
      <point x="401" y="453"/>
      <point x="620" y="458" type="curve" smooth="yes"/>
      <point x="721" y="460" type="line"/>
    </contour>
    <contour>
      <point x="1344" y="891"/>
      <point x="1395" y="787"/>
      <point x="1407" y="625" type="curve"/>
      <point x="936" y="616" type="line"/>
      <point x="950" y="763"/>
      <point x="1023" y="891"/>
      <point x="1187" y="891" type="curve" smooth="yes"/>
    </contour>
  </outline>
</glyph>
<glyph name="eth" format="1">
  <advance width="1053"/>
  <unicode hex="00F0"/>
  <outline>
    <contour>
      <point x="169" y="1293" type="line"/>
      <point x="311" y="1293"/>
      <point x="425" y="1257"/>
      <point x="515" y="1199" type="curve"/>
      <point x="374" y="1107" type="line"/>
      <point x="452" y="997" type="line"/>
      <point x="622" y="1108" type="line"/>
      <point x="713" y="1010"/>
      <point x="762" y="886"/>
      <point x="776" y="774" type="curve"/>
      <point x="711" y="864"/>
      <point x="611" y="908"/>
      <point x="503" y="908" type="curve" smooth="yes"/>
      <point x="282" y="908"/>
      <point x="64" y="746"/>
      <point x="64" y="454" type="curve" smooth="yes"/>
      <point x="64" y="208"/>
      <point x="219" y="-21"/>
      <point x="518" y="-24" type="curve" smooth="yes"/>
      <point x="847" y="-27"/>
      <point x="991" y="213"/>
      <point x="991" y="529" type="curve" smooth="yes"/>
      <point x="991" y="774"/>
      <point x="931" y="1027"/>
      <point x="768" y="1203" type="curve"/>
      <point x="938" y="1314" type="line"/>
      <point x="860" y="1424" type="line"/>
      <point x="662" y="1295" type="line"/>
      <point x="541" y="1380"/>
      <point x="379" y="1432"/>
      <point x="169" y="1432" type="curve"/>
    </contour>
    <contour>
      <point x="619" y="744"/>
      <point x="690" y="697"/>
      <point x="782" y="596" type="curve"/>
      <point x="788" y="570"/>
      <point x="789" y="535"/>
      <point x="789" y="511" type="curve" smooth="yes"/>
      <point x="789" y="308"/>
      <point x="710" y="127"/>
      <point x="518" y="138" type="curve" smooth="yes"/>
      <point x="385" y="146"/>
      <point x="276" y="253"/>
      <point x="276" y="444" type="curve" smooth="yes"/>
      <point x="276" y="624"/>
      <point x="381" y="744"/>
      <point x="523" y="744" type="curve" smooth="yes"/>
    </contour>
  </outline>
</glyph>
<glyph name="divide" format="1">
  <advance width="1024"/>
  <unicode hex="00F7"/>
  <outline>
    <contour>
      <point x="595" y="395" type="line"/>
      <point x="595" y="171" type="line"/>
      <point x="334" y="171" type="line"/>
      <point x="334" y="395" type="line"/>
    </contour>
    <contour>
      <point x="334" y="1024" type="line"/>
      <point x="595" y="1024" type="line"/>
      <point x="595" y="798" type="line"/>
      <point x="334" y="798" type="line"/>
    </contour>
    <contour>
      <point x="842" y="527" type="line"/>
      <point x="842" y="669" type="line"/>
      <point x="92" y="669" type="line"/>
      <point x="92" y="527" type="line"/>
    </contour>
  </outline>
</glyph>
<glyph name="oslash" format="1">
  <advance width="1104"/>
  <unicode hex="00F8"/>
  <outline>
    <contour>
      <point x="291" y="-200" type="line"/>
      <point x="942" y="1175" type="line"/>
      <point x="835" y="1232" type="line"/>
      <point x="182" y="-143" type="line"/>
    </contour>
    <component base="o"/>
  </outline>
</glyph>
<glyph name="Dcroat" format="1">
  <advance width="1444"/>
  <unicode hex="0110"/>
  <outline>
    <contour>
      <point x="0" y="808" type="line"/>
      <point x="0" y="681" type="line"/>
      <point x="570" y="681" type="line"/>
      <point x="570" y="808" type="line"/>
    </contour>
    <component base="D"/>
  </outline>
</glyph>
<glyph name="dcroat" format="1">
  <advance width="1137"/>
  <unicode hex="0111"/>
  <outline>
    <contour>
      <point x="589" y="1176" type="line"/>
      <point x="1139" y="1176" type="line"/>
      <point x="1139" y="1304" type="line"/>
      <point x="589" y="1304" type="line"/>
    </contour>
    <component base="d"/>
  </outline>
</glyph>
<glyph name="hbar" format="1">
  <advance width="1117"/>
  <unicode hex="0127"/>
  <outline>
    <contour>
      <point x="-12" y="1176" type="line"/>
      <point x="538" y="1176" type="line"/>
      <point x="538" y="1304" type="line"/>
      <point x="-12" y="1304" type="line"/>
    </contour>
    <component base="h"/>
  </outline>
</glyph>
<glyph name="kgreenlandic" format="1">
  <advance width="1010"/>
  <unicode hex="0138"/>
  <outline>
    <contour>
      <point x="825" y="0" type="line"/>
      <point x="1066" y="0" type="line"/>
      <point x="639" y="586" type="line"/>
      <point x="1011" y="1023" type="line"/>
      <point x="767" y="1023" type="line"/>
      <point x="207" y="382" type="line"/>
      <point x="207" y="172" type="line"/>
      <point x="496" y="470" type="line"/>
    </contour>
    <component base="lc_main_stem"/>
  </outline>
</glyph>
<glyph name="Lslash" format="1">
  <advance width="1055"/>
  <unicode hex="0141"/>
  <outline>
    <contour>
      <point x="-31" y="764" type="line"/>
      <point x="-31" y="582" type="line"/>
      <point x="642" y="842" type="line"/>
      <point x="642" y="1024" type="line"/>
    </contour>
    <component base="L"/>
  </outline>
</glyph>
<glyph name="eng" format="1">
  <advance width="1135"/>
  <unicode hex="014B"/>
  <outline>
    <contour>
      <point x="542" y="-410" type="line"/>
      <point x="826" y="-410"/>
      <point x="1021" y="-314"/>
      <point x="1021" y="-25" type="curve" smooth="yes"/>
      <point x="1021" y="154" type="line"/>
      <point x="809" y="154" type="line"/>
      <point x="809" y="-21" type="line" smooth="yes"/>
      <point x="809" y="-170"/>
      <point x="751" y="-248"/>
      <point x="545" y="-251" type="curve"/>
    </contour>
    <component base="n"/>
  </outline>
</glyph>
<glyph name="OE" format="1">
  <advance width="2171"/>
  <unicode hex="0152"/>
  <outline>
    <contour>
      <point x="342" y="1491"/>
      <point x="99" y="1282"/>
      <point x="99" y="740" type="curve" smooth="yes"/>
      <point x="99" y="186"/>
      <point x="337" y="-25"/>
      <point x="720" y="-25" type="curve" smooth="yes"/>
      <point x="979" y="-25"/>
      <point x="1094" y="57"/>
      <point x="1164" y="170" type="curve"/>
      <point x="1164" y="0" type="line"/>
      <point x="2121" y="0" type="line"/>
      <point x="2121" y="166" type="line"/>
      <point x="1384" y="166" type="line"/>
      <point x="1384" y="694" type="line"/>
      <point x="2016" y="694" type="line"/>
      <point x="2016" y="862" type="line"/>
      <point x="1384" y="862" type="line"/>
      <point x="1384" y="1298" type="line"/>
      <point x="2110" y="1298" type="line"/>
      <point x="2110" y="1464" type="line"/>
      <point x="1163" y="1464" type="line"/>
      <point x="1163" y="1298" type="line"/>
      <point x="1083" y="1420"/>
      <point x="946" y="1491"/>
      <point x="721" y="1491" type="curve" smooth="yes"/>
    </contour>
    <contour>
      <point x="1062" y="1325"/>
      <point x="1164" y="1160"/>
      <point x="1164" y="740" type="curve" smooth="yes"/>
      <point x="1164" y="283"/>
      <point x="1046" y="143"/>
      <point x="721" y="152" type="curve" smooth="yes"/>
      <point x="425" y="160"/>
      <point x="329" y="336"/>
      <point x="329" y="741" type="curve" smooth="yes"/>
      <point x="329" y="1130"/>
      <point x="432" y="1307"/>
      <point x="720" y="1315" type="curve" smooth="yes"/>
    </contour>
  </outline>
</glyph>
<glyph name="oe" format="1">
  <advance width="2136"/>
  <unicode hex="0153"/>
  <outline>
    <contour>
      <point x="552" y="-24" type="curve" smooth="yes"/>
      <point x="708" y="-24"/>
      <point x="842" y="40"/>
      <point x="912" y="167" type="curve"/>
      <point x="968" y="57"/>
      <point x="1105" y="-24"/>
      <point x="1268" y="-24" type="curve" smooth="yes"/>
      <point x="1465" y="-24"/>
      <point x="1612" y="94"/>
      <point x="1659" y="272" type="curve"/>
      <point x="1500" y="307" type="line"/>
      <point x="1465" y="212"/>
      <point x="1403" y="127"/>
      <point x="1265" y="127" type="curve" smooth="yes"/>
      <point x="1081" y="127"/>
      <point x="1019" y="304"/>
      <point x="1016" y="468" type="curve"/>
      <point x="1674" y="468" type="line"/>
      <point x="1676" y="485"/>
      <point x="1677" y="559"/>
      <point x="1677" y="568" type="curve" smooth="yes"/>
      <point x="1677" y="841"/>
      <point x="1544" y="1047"/>
      <point x="1259" y="1047" type="curve" smooth="yes"/>
      <point x="1107" y="1047"/>
      <point x="979" y="970"/>
      <point x="911" y="848" type="curve"/>
      <point x="844" y="974"/>
      <point x="707" y="1047"/>
      <point x="552" y="1047" type="curve" smooth="yes"/>
      <point x="266" y="1047"/>
      <point x="88" y="866"/>
      <point x="88" y="512" type="curve" smooth="yes"/>
      <point x="88" y="158"/>
      <point x="266" y="-24"/>
    </contour>
    <contour>
      <point x="552" y="126" type="curve" smooth="yes"/>
      <point x="346" y="126"/>
      <point x="305" y="322"/>
      <point x="305" y="512" type="curve" smooth="yes"/>
      <point x="305" y="702"/>
      <point x="346" y="897"/>
      <point x="552" y="897" type="curve" smooth="yes"/>
      <point x="758" y="897"/>
      <point x="799" y="702"/>
      <point x="799" y="512" type="curve" smooth="yes"/>
      <point x="799" y="322"/>
      <point x="758" y="126"/>
    </contour>
    <contour>
      <point x="1016" y="607" type="line"/>
      <point x="1021" y="721"/>
      <point x="1074" y="896"/>
      <point x="1255" y="896" type="curve" smooth="yes"/>
      <point x="1417" y="896"/>
      <point x="1478" y="796"/>
      <point x="1478" y="607" type="curve"/>
    </contour>
    <contour>
      <point x="1752" y="0" type="move" name="ogonek"/>
    </contour>
    <contour>
      <point x="1649" y="1023" type="move" name="top"/>
    </contour>
  </outline>
</glyph>
<glyph name="Tbar" format="1">
  <advance width="1119"/>
  <unicode hex="0166"/>
  <outline>
    <contour>
      <point x="249" y="811" type="line"/>
      <point x="249" y="661" type="line"/>
      <point x="885" y="661" type="line"/>
      <point x="885" y="811" type="line"/>
    </contour>
    <component base="T"/>
    <contour>
      <point x="585" y="1464" type="move" name="_top"/>
    </contour>
  </outline>
</glyph>
<glyph name="tbar" format="1">
  <advance width="693"/>
  <unicode hex="0167"/>
  <outline>
    <contour>
      <point x="95" y="533" type="line"/>
      <point x="549" y="533" type="line"/>
      <point x="549" y="683" type="line"/>
      <point x="95" y="683" type="line"/>
    </contour>
    <component base="t"/>
  </outline>
</glyph>
<glyph name="florin" format="1">
  <advance width="1030"/>
  <unicode hex="0192"/>
  <outline>
    <contour>
      <point x="406.906" y="-171" type="line"/>
      <point x="634.934" y="805" type="line"/>
      <point x="848.116" y="805" type="line"/>
      <point x="866.33" y="895" type="line"/>
      <point x="654.336" y="895" type="line"/>
      <point x="738.47" y="1253.31" type="line"/>
      <point x="761.808" y="1351.77"/>
      <point x="782.245" y="1449"/>
      <point x="859" y="1449" type="curve"/>
      <point x="892.31" y="1449"/>
      <point x="917.487" y="1402.01"/>
      <point x="916.993" y="1298" type="curve"/>
      <point x="1089.99" y="1298" type="line"/>
      <point x="1091.17" y="1487.87"/>
      <point x="980.484" y="1537"/>
      <point x="852" y="1537" type="curve"/>
      <point x="654.724" y="1537"/>
      <point x="572.359" y="1399.73"/>
      <point x="534.549" y="1241.7" type="curve"/>
      <point x="452.091" y="895" type="line"/>
      <point x="289.884" y="895" type="line"/>
      <point x="271.67" y="805" type="line"/>
      <point x="436.664" y="805" type="line"/>
      <point x="207.694" y="-170" type="line"/>
    </contour>
  </outline>
</glyph>
<glyph name="apostrophemod" format="1">
  <advance width="600"/>
  <unicode hex="02BC"/>
  <outline>
    <contour>
      <point x="283" y="1204" type="line"/>
      <point x="425" y="1285"/>
      <point x="456" y="1396"/>
      <point x="456" y="1594" type="curve" smooth="yes"/>
      <point x="456" y="1739" type="line"/>
      <point x="186" y="1739" type="line"/>
      <point x="186" y="1499" type="line"/>
      <point x="305" y="1486" type="line"/>
      <point x="305" y="1407"/>
      <point x="245" y="1327"/>
      <point x="212" y="1296" type="curve"/>
    </contour>
    <contour>
      <point x="320" y="1023" type="move" name="_top"/>
    </contour>
  </outline>
</glyph>
<glyph name="circumflex" format="1">
  <advance width="838"/>
  <unicode hex="02C6"/>
  <outline>
    <contour>
      <point x="297" y="1474" type="line"/>
      <point x="552" y="1474" type="line"/>
      <point x="707" y="1154" type="line"/>
      <point x="565" y="1154" type="line"/>
      <point x="424" y="1372" type="line"/>
      <point x="284" y="1154" type="line"/>
      <point x="142" y="1154" type="line"/>
    </contour>
    <contour>
      <point x="439" y="1023" type="move" name="_top"/>
    </contour>
  </outline>
</glyph>
<glyph name="caron" format="1">
  <advance width="838"/>
  <unicode hex="02C7"/>
  <outline>
    <contour>
      <point x="297" y="1154" type="line"/>
      <point x="142" y="1474" type="line"/>
      <point x="284" y="1474" type="line"/>
      <point x="424" y="1256" type="line"/>
      <point x="565" y="1474" type="line"/>
      <point x="707" y="1474" type="line"/>
      <point x="552" y="1154" type="line"/>
    </contour>
    <contour>
      <point x="435" y="1023" type="move" name="_top"/>
    </contour>
  </outline>
</glyph>
<glyph name="uni02C9" format="1">
  <advance width="600"/>
  <unicode hex="02C9"/>
  <outline>
    <contour>
      <point x="72" y="1244" type="line"/>
      <point x="526" y="1244" type="line"/>
      <point x="526" y="1394" type="line"/>
      <point x="72" y="1394" type="line"/>
    </contour>
    <contour>
      <point x="283" y="1023" type="move" name="_top"/>
    </contour>
  </outline>
</glyph>
<glyph name="breve" format="1">
  <advance width="805"/>
  <unicode hex="02D8"/>
  <outline>
    <contour>
      <point x="402" y="1198" type="curve" smooth="yes"/>
      <point x="539" y="1198"/>
      <point x="677" y="1274"/>
      <point x="681" y="1474" type="curve"/>
      <point x="508" y="1474" type="line"/>
      <point x="508" y="1407"/>
      <point x="496" y="1353"/>
      <point x="402" y="1353" type="curve" smooth="yes"/>
      <point x="308" y="1353"/>
      <point x="296" y="1407"/>
      <point x="296" y="1474" type="curve"/>
      <point x="123" y="1474" type="line"/>
      <point x="127" y="1274"/>
      <point x="265" y="1198"/>
    </contour>
    <contour>
      <point x="418" y="1023" type="move" name="_top"/>
    </contour>
  </outline>
</glyph>
<glyph name="dotaccent" format="1">
  <advance width="434"/>
  <unicode hex="02D9"/>
  <outline>
    <contour>
      <point x="106" y="1234" type="line"/>
      <point x="324" y="1234" type="line"/>
      <point x="324" y="1474" type="line"/>
      <point x="106" y="1474" type="line"/>
    </contour>
    <contour>
      <point x="221" y="1023" type="move" name="_top"/>
    </contour>
  </outline>
</glyph>
<glyph name="ring" format="1">
  <advance width="728"/>
  <unicode hex="02DA"/>
  <outline>
    <contour>
      <point x="366" y="1610" type="curve"/>
      <point x="441" y="1610"/>
      <point x="484" y="1554"/>
      <point x="484" y="1480" type="curve"/>
      <point x="484" y="1406"/>
      <point x="441" y="1350"/>
      <point x="366" y="1350" type="curve"/>
      <point x="291" y="1350"/>
      <point x="248" y="1406"/>
      <point x="248" y="1480" type="curve"/>
      <point x="248" y="1554"/>
      <point x="291" y="1610"/>
    </contour>
    <contour>
      <point x="366" y="1225" type="curve"/>
      <point x="534" y="1225"/>
      <point x="628" y="1347"/>
      <point x="628" y="1480" type="curve"/>
      <point x="628" y="1613"/>
      <point x="534" y="1735"/>
      <point x="366" y="1735" type="curve"/>
      <point x="198" y="1735"/>
      <point x="104" y="1613"/>
      <point x="104" y="1480" type="curve"/>
      <point x="104" y="1347"/>
      <point x="198" y="1225"/>
    </contour>
    <contour>
      <point x="348" y="1023" type="move" name="_top"/>
    </contour>
  </outline>
</glyph>
<glyph name="ogonek" format="1">
  <advance width="462"/>
  <unicode hex="02DB"/>
  <outline>
    <contour>
      <point x="254" y="0" type="line"/>
      <point x="191" y="-68"/>
      <point x="117" y="-153"/>
      <point x="117" y="-241" type="curve" smooth="yes"/>
      <point x="117" y="-321"/>
      <point x="195" y="-427"/>
      <point x="396" y="-379" type="curve"/>
      <point x="396" y="-260" type="line"/>
      <point x="313" y="-279"/>
      <point x="292" y="-247"/>
      <point x="292" y="-202" type="curve" smooth="yes"/>
      <point x="292" y="-144"/>
      <point x="320" y="-82"/>
      <point x="355" y="0" type="curve"/>
    </contour>
    <contour>
      <point x="303" y="0" type="move" name="_ogonek"/>
    </contour>
  </outline>
</glyph>
<glyph name="tilde" format="1">
  <advance width="798"/>
  <unicode hex="02DC"/>
  <outline>
    <contour>
      <point x="666" y="1192"/>
      <point x="698" y="1272"/>
      <point x="698" y="1384" type="curve" smooth="yes"/>
      <point x="698" y="1401"/>
      <point x="698" y="1418"/>
      <point x="696" y="1436" type="curve"/>
      <point x="565" y="1436" type="line"/>
      <point x="565" y="1377"/>
      <point x="554" y="1359"/>
      <point x="527" y="1359" type="curve" smooth="yes"/>
      <point x="450" y="1359"/>
      <point x="349" y="1443"/>
      <point x="224" y="1443" type="curve" smooth="yes"/>
      <point x="160" y="1443"/>
      <point x="106" y="1385"/>
      <point x="106" y="1261" type="curve" smooth="yes"/>
      <point x="106" y="1242"/>
      <point x="107" y="1222"/>
      <point x="110" y="1201" type="curve"/>
      <point x="240" y="1201" type="line"/>
      <point x="240" y="1261"/>
      <point x="262" y="1281"/>
      <point x="286" y="1281" type="curve"/>
      <point x="398" y="1273"/>
      <point x="481" y="1192"/>
      <point x="595" y="1192" type="curve" smooth="yes"/>
    </contour>
    <contour>
      <point x="418" y="1023" type="move" name="_top"/>
    </contour>
  </outline>
</glyph>
<glyph name="hungarumlaut" format="1">
  <advance width="745"/>
  <unicode hex="02DD"/>
  <outline>
    <contour>
      <point x="47" y="1134" type="line"/>
      <point x="145" y="1134" type="line"/>
      <point x="391" y="1474" type="line"/>
      <point x="112" y="1474" type="line"/>
    </contour>
    <contour>
      <point x="375" y="1134" type="line"/>
      <point x="483" y="1134" type="line"/>
      <point x="755" y="1474" type="line"/>
      <point x="467" y="1474" type="line"/>
    </contour>
    <contour>
      <point x="250" y="1023" type="move" name="_top"/>
    </contour>
  </outline>
</glyph>
<glyph name="dblgravecmb" format="1">
  <advance width="745"/>
  <unicode hex="030F"/>
  <outline>
    <contour>
      <point x="319" y="1152" type="line"/>
      <point x="427" y="1152" type="line"/>
      <point x="335" y="1492" type="line"/>
      <point x="47" y="1492" type="line"/>
    </contour>
    <contour>
      <point x="657" y="1152" type="line"/>
      <point x="755" y="1152" type="line"/>
      <point x="690" y="1492" type="line"/>
      <point x="411" y="1492" type="line"/>
    </contour>
    <contour>
      <point x="575" y="1023" type="move" name="_top"/>
    </contour>
  </outline>
</glyph>
<glyph name="uni030F" format="1">
  <advance width="745"/>
  <unicode hex="030F"/>
  <outline>
    <contour>
      <point x="690" y="1492" type="line"/>
      <point x="755" y="1152" type="line"/>
      <point x="657" y="1152" type="line"/>
      <point x="411" y="1492" type="line"/>
    </contour>
    <contour>
      <point x="335" y="1492" type="line"/>
      <point x="427" y="1152" type="line"/>
      <point x="319" y="1152" type="line"/>
      <point x="47" y="1492" type="line"/>
    </contour>
    <contour>
      <point x="575" y="1023" type="move" name="_top"/>
    </contour>
  </outline>
</glyph>
<glyph name="breveinvertedcomb" format="1">
  <advance width="805"/>
  <unicode hex="0311"/>
  <outline>
    <contour>
      <point x="113" y="1162" type="curve"/>
      <point x="286" y="1162" type="line"/>
      <point x="286" y="1229"/>
      <point x="308" y="1283"/>
      <point x="402" y="1283" type="curve" smooth="yes"/>
      <point x="496" y="1283"/>
      <point x="518" y="1229"/>
      <point x="518" y="1162" type="curve"/>
      <point x="691" y="1162" type="line"/>
      <point x="687" y="1362"/>
      <point x="539" y="1438"/>
      <point x="402" y="1438" type="curve" smooth="yes"/>
      <point x="265" y="1438"/>
      <point x="117" y="1362"/>
    </contour>
    <contour>
      <point x="414" y="1023" type="move" name="_top"/>
    </contour>
  </outline>
</glyph>
<glyph name="commaturnedabovecomb" format="1">
  <advance width="600"/>
  <unicode hex="0312"/>
  <outline>
    <contour>
      <point x="186" y="1204" type="line"/>
      <point x="456" y="1204" type="line"/>
      <point x="456" y="1444" type="line"/>
      <point x="337" y="1457" type="line"/>
      <point x="337" y="1536"/>
      <point x="397" y="1616"/>
      <point x="430" y="1647" type="curve"/>
      <point x="359" y="1739" type="line"/>
      <point x="217" y="1658"/>
      <point x="186" y="1547"/>
      <point x="186" y="1349" type="curve" smooth="yes"/>
    </contour>
    <contour>
      <point x="320" y="1023" type="move" name="_top"/>
    </contour>
  </outline>
</glyph>
<glyph name="commaaccent" format="1">
  <advance width="409"/>
  <unicode hex="0326"/>
  <outline>
    <contour>
      <point x="355" y="-159" type="line"/>
      <point x="85" y="-159" type="line"/>
      <point x="85" y="-399" type="line"/>
      <point x="204" y="-412" type="line"/>
      <point x="204" y="-491"/>
      <point x="144" y="-571"/>
      <point x="111" y="-602" type="curve"/>
      <point x="182" y="-694" type="line"/>
      <point x="324" y="-613"/>
      <point x="355" y="-502"/>
      <point x="355" y="-304" type="curve" smooth="yes"/>
    </contour>
    <contour>
      <point x="226" y="0" type="move" name="_bot"/>
    </contour>
  </outline>
</glyph>
<glyph name="Delta" format="1">
  <advance width="1332"/>
  <unicode hex="0394"/>
  <outline>
    <contour>
      <point x="43" y="0" type="line"/>
      <point x="1300" y="0" type="line"/>
      <point x="759" y="1482" type="line"/>
      <point x="576" y="1482" type="line"/>
    </contour>
    <contour>
      <point x="230" y="146" type="line"/>
      <point x="634" y="1307" type="line"/>
      <point x="1044" y="146" type="line"/>
    </contour>
  </outline>
</glyph>
<glyph name="Sigma" format="1">
  <advance width="1292"/>
  <unicode hex="03A3"/>
  <outline>
    <contour>
      <point x="1179" y="0" type="line"/>
      <point x="1179" y="189" type="line"/>
      <point x="370" y="189" type="line"/>
      <point x="829" y="674" type="line"/>
      <point x="829" y="815" type="line"/>
      <point x="401" y="1278" type="line"/>
      <point x="1179" y="1278" type="line"/>
      <point x="1179" y="1464" type="line"/>
      <point x="121" y="1464" type="line"/>
      <point x="121" y="1279" type="line"/>
      <point x="614" y="722" type="line"/>
      <point x="121" y="208" type="line"/>
      <point x="121" y="0" type="line"/>
    </contour>
  </outline>
</glyph>
<glyph name="Omega" format="1">
  <advance width="1758"/>
  <unicode hex="03A9"/>
  <outline>
    <contour>
      <point x="105" y="0" type="line"/>
      <point x="790" y="0" type="line"/>
      <point x="790" y="127" type="line"/>
      <point x="501" y="242"/>
      <point x="346" y="512"/>
      <point x="346" y="780" type="curve"/>
      <point x="346" y="1138"/>
      <point x="615" y="1311"/>
      <point x="879" y="1311" type="curve"/>
      <point x="1144" y="1311"/>
      <point x="1412" y="1138"/>
      <point x="1412" y="780" type="curve"/>
      <point x="1412" y="512"/>
      <point x="1257" y="242"/>
      <point x="968" y="127" type="curve"/>
      <point x="968" y="0" type="line"/>
      <point x="1653" y="0" type="line"/>
      <point x="1653" y="134" type="line"/>
      <point x="1229" y="134" type="line"/>
      <point x="1499" y="291"/>
      <point x="1627" y="542"/>
      <point x="1627" y="780" type="curve"/>
      <point x="1627" y="1256"/>
      <point x="1255" y="1491"/>
      <point x="879" y="1491" type="curve"/>
      <point x="503" y="1491"/>
      <point x="131" y="1256"/>
      <point x="131" y="780" type="curve"/>
      <point x="131" y="542"/>
      <point x="259" y="291"/>
      <point x="529" y="134" type="curve"/>
      <point x="105" y="134" type="line"/>
    </contour>
  </outline>
</glyph>
<glyph name="endash" format="1">
  <advance width="1024"/>
  <unicode hex="2013"/>
  <outline>
    <contour>
      <point x="135" y="294" type="line"/>
      <point x="889" y="294" type="line"/>
      <point x="889" y="420" type="line"/>
      <point x="135" y="420" type="line"/>
    </contour>
  </outline>
</glyph>
<glyph name="emdash" format="1">
  <advance width="2048"/>
  <unicode hex="2014"/>
  <outline>
    <contour>
      <point x="135" y="294" type="line"/>
      <point x="135" y="420" type="line"/>
      <point x="1912" y="420" type="line"/>
      <point x="1912" y="294" type="line"/>
    </contour>
  </outline>
</glyph>
<glyph name="quoteleft" format="1">
  <advance width="330"/>
  <unicode hex="2018"/>
  <outline>
    <contour>
      <point x="145" y="1469" type="curve"/>
      <point x="145" y="1468"/>
      <point x="233" y="1421"/>
      <point x="234" y="1421" type="curve"/>
      <point x="177" y="1325"/>
      <point x="156" y="1298"/>
      <point x="156" y="1200" type="curve"/>
      <point x="250" y="1187" type="line"/>
      <point x="250" y="1144"/>
      <point x="250" y="1100"/>
      <point x="250" y="1057" type="curve" smooth="yes"/>
      <point x="250" y="1035"/>
      <point x="250" y="1014"/>
      <point x="250" y="992" type="curve"/>
      <point x="20" y="992" type="line"/>
      <point x="20" y="1089" type="line" smooth="yes"/>
      <point x="20" y="1094"/>
      <point x="20" y="1099"/>
      <point x="20" y="1103" type="curve" smooth="yes"/>
      <point x="20" y="1244"/>
      <point x="22" y="1374"/>
    </contour>
  </outline>
</glyph>
<glyph name="daggerdbl" format="1">
  <advance width="1117"/>
  <unicode hex="2021"/>
  <outline>
    <contour>
      <point x="453" y="0" type="line"/>
      <point x="679" y="0" type="line"/>
      <point x="679" y="451" type="line"/>
      <point x="1000" y="451" type="line"/>
      <point x="1000" y="622" type="line"/>
      <point x="679" y="622" type="line"/>
      <point x="679" y="932" type="line"/>
      <point x="1000" y="932" type="line"/>
      <point x="1000" y="1104" type="line"/>
      <point x="679" y="1104" type="line"/>
      <point x="679" y="1464" type="line"/>
      <point x="453" y="1464" type="line"/>
      <point x="453" y="1104" type="line"/>
      <point x="117" y="1104" type="line"/>
      <point x="117" y="932" type="line"/>
      <point x="453" y="932" type="line"/>
      <point x="453" y="622" type="line"/>
      <point x="119" y="622" type="line"/>
      <point x="119" y="451" type="line"/>
      <point x="453" y="451" type="line"/>
    </contour>
  </outline>
</glyph>
<glyph name="bullet" format="1">
  <advance width="1115"/>
  <unicode hex="2022"/>
  <outline>
    <contour>
      <point x="324" y="1025"/>
      <point x="168" y="862"/>
      <point x="168" y="618" type="curve" smooth="yes"/>
      <point x="168" y="374"/>
      <point x="324" y="212"/>
      <point x="558" y="212" type="curve" smooth="yes"/>
      <point x="792" y="212"/>
      <point x="947" y="374"/>
      <point x="947" y="618" type="curve" smooth="yes"/>
      <point x="947" y="862"/>
      <point x="792" y="1025"/>
      <point x="560" y="1025" type="curve" smooth="yes"/>
    </contour>
  </outline>
</glyph>
<glyph name="perthousand" format="1">
  <advance width="2413"/>
  <unicode hex="2030"/>
  <outline>
    <contour>
      <point x="2059" y="115" type="curve" smooth="yes"/>
      <point x="1959" y="115"/>
      <point x="1907" y="207"/>
      <point x="1907" y="325" type="curve" smooth="yes"/>
      <point x="1907" y="436"/>
      <point x="1964" y="531"/>
      <point x="2059" y="531" type="curve" smooth="yes"/>
      <point x="2157" y="531"/>
      <point x="2210" y="440"/>
      <point x="2210" y="324" type="curve" smooth="yes"/>
      <point x="2210" y="207"/>
      <point x="2156" y="115"/>
    </contour>
    <contour>
      <point x="2060" y="-24" type="curve" smooth="yes"/>
      <point x="2261" y="-24"/>
      <point x="2373" y="148"/>
      <point x="2373" y="322" type="curve" smooth="yes"/>
      <point x="2373" y="494"/>
      <point x="2261" y="668"/>
      <point x="2060" y="668" type="curve" smooth="yes"/>
      <point x="1857" y="668"/>
      <point x="1743" y="493"/>
      <point x="1743" y="320" type="curve" smooth="yes"/>
      <point x="1743" y="147"/>
      <point x="1855" y="-24"/>
    </contour>
    <component base="percent"/>
  </outline>
</glyph>
<glyph name="guilsinglleft" format="1">
  <advance width="528"/>
  <unicode hex="2039"/>
  <outline>
    <contour>
      <point x="43" y="798" type="line"/>
      <point x="498" y="1069" type="line"/>
      <point x="498" y="857" type="line"/>
      <point x="191" y="650" type="line"/>
      <point x="498" y="441" type="line"/>
      <point x="498" y="230" type="line"/>
      <point x="43" y="501" type="line"/>
    </contour>
  </outline>
</glyph>
<glyph name="fraction" format="1">
  <advance width="1410"/>
  <unicode hex="2044"/>
  <outline>
    <contour>
      <point x="29" y="84" type="line"/>
      <point x="146" y="-14" type="line"/>
      <point x="1381" y="1415" type="line"/>
      <point x="1265" y="1513" type="line"/>
    </contour>
  </outline>
</glyph>
<glyph name="foursuperior" format="1">
  <advance width="1246"/>
  <unicode hex="2074"/>
  <outline>
    <contour>
      <point x="285" y="719" type="line"/>
      <point x="285" y="833" type="line"/>
      <point x="653" y="1464" type="line"/>
      <point x="872" y="1464" type="line"/>
      <point x="872" y="835" type="line"/>
      <point x="1011" y="835" type="line"/>
      <point x="1011" y="719" type="line"/>
      <point x="872" y="719" type="line"/>
      <point x="872" y="488" type="line"/>
      <point x="717" y="488" type="line"/>
      <point x="717" y="719" type="line"/>
    </contour>
    <contour>
      <point x="717" y="835" type="line"/>
      <point x="717" y="1367" type="line"/>
      <point x="422" y="835" type="line"/>
    </contour>
  </outline>
</glyph>
<glyph name="euro" format="1">
  <advance width="1275"/>
  <unicode hex="20AC"/>
  <outline>
    <contour>
      <point x="-54" y="783"/>
      <point x="680" y="783"/>
      <point x="680" y="783" type="curve"/>
      <point x="680" y="927" type="line"/>
      <point x="680" y="927"/>
      <point x="-54" y="927"/>
      <point x="-54" y="927" type="curve"/>
      <point x="-54" y="783" type="line"/>
    </contour>
    <contour>
      <point x="680" y="525" type="curve"/>
      <point x="680" y="669" type="line"/>
      <point x="680" y="669"/>
      <point x="-54" y="669"/>
      <point x="-54" y="669" type="curve"/>
      <point x="-54" y="525" type="line"/>
      <point x="-54" y="525"/>
      <point x="680" y="525"/>
    </contour>
    <component base="C"/>
  </outline>
</glyph>
<glyph name="uni2113" format="1">
  <advance width="832"/>
  <unicode hex="2113"/>
  <outline>
    <contour>
      <point x="351" y="1573"/>
      <point x="207" y="1467"/>
      <point x="207" y="1250" type="curve" smooth="yes"/>
      <point x="207" y="882" type="line"/>
      <point x="-4" y="712" type="line"/>
      <point x="59" y="621" type="line"/>
      <point x="207" y="738" type="line"/>
      <point x="207" y="298" type="line" smooth="yes"/>
      <point x="202" y="61"/>
      <point x="349" y="-16"/>
      <point x="510" y="-16" type="curve" smooth="yes"/>
      <point x="575" y="-16"/>
      <point x="645" y="1"/>
      <point x="710" y="32" type="curve"/>
      <point x="676" y="173" type="line"/>
      <point x="628" y="153"/>
      <point x="580" y="141"/>
      <point x="545" y="141" type="curve" smooth="yes"/>
      <point x="471" y="141"/>
      <point x="418" y="183"/>
      <point x="418" y="311" type="curve" smooth="yes"/>
      <point x="418" y="879" type="line"/>
      <point x="554" y="987" type="line" smooth="yes"/>
      <point x="707" y="1109"/>
      <point x="772" y="1238"/>
      <point x="772" y="1344" type="curve" smooth="yes"/>
      <point x="772" y="1477"/>
      <point x="670" y="1573"/>
      <point x="515" y="1573" type="curve" smooth="yes"/>
    </contour>
    <contour>
      <point x="596" y="1421"/>
      <point x="634" y="1380"/>
      <point x="634" y="1318" type="curve" smooth="yes"/>
      <point x="634" y="1252"/>
      <point x="591" y="1162"/>
      <point x="477" y="1070" type="curve" smooth="yes"/>
      <point x="418" y="1023" type="line"/>
      <point x="418" y="1242" type="line" smooth="yes"/>
      <point x="418" y="1374"/>
      <point x="473" y="1421"/>
      <point x="543" y="1421" type="curve" smooth="yes"/>
    </contour>
  </outline>
</glyph>
<glyph name="estimated" format="1">
  <advance width="1191"/>
  <unicode hex="212E"/>
  <outline>
    <contour>
      <point x="671" y="-20" type="curve" smooth="yes"/>
      <point x="878" y="-20"/>
      <point x="1013" y="70"/>
      <point x="1113" y="188" type="curve"/>
      <point x="1061" y="239" type="line"/>
      <point x="963" y="134"/>
      <point x="851" y="53"/>
      <point x="671" y="53" type="curve" smooth="yes"/>
      <point x="441" y="53"/>
      <point x="319" y="245"/>
      <point x="318" y="521" type="curve"/>
      <point x="1121" y="521" type="line"/>
      <point x="1121" y="869"/>
      <point x="973" y="1102"/>
      <point x="653" y="1102" type="curve" smooth="yes"/>
      <point x="330" y="1102"/>
      <point x="100" y="861"/>
      <point x="100" y="541" type="curve" smooth="yes"/>
      <point x="100" y="221"/>
      <point x="288" y="-20"/>
    </contour>
    <contour>
      <point x="320" y="601" type="line"/>
      <point x="335" y="863"/>
      <point x="486" y="1042"/>
      <point x="659" y="1042" type="curve" smooth="yes"/>
      <point x="868" y="1042"/>
      <point x="1009" y="836"/>
      <point x="1009" y="601" type="curve"/>
    </contour>
  </outline>
</glyph>
<glyph name="partialdiff" format="1">
  <advance width="1194.030"/>
  <unicode hex="2202"/>
  <outline>
    <contour>
      <point x="862" y="1008"/>
      <point x="712" y="1293"/>
      <point x="315" y="1293" type="curve"/>
      <point x="330" y="1432" type="line"/>
      <point x="890" y="1432"/>
      <point x="1065" y="1065"/>
      <point x="1065" y="676" type="curve" smooth="yes"/>
      <point x="1065" y="627"/>
      <point x="1062" y="578"/>
      <point x="1057" y="529" type="curve" smooth="yes"/>
      <point x="1023" y="215"/>
      <point x="856" y="-24"/>
      <point x="531" y="-24" type="curve" smooth="yes"/>
      <point x="254" y="-24"/>
      <point x="119" y="170"/>
      <point x="119" y="394" type="curve" smooth="yes"/>
      <point x="119" y="413"/>
      <point x="120" y="434"/>
      <point x="122" y="454" type="curve" smooth="yes"/>
      <point x="152" y="746"/>
      <point x="387" y="908"/>
      <point x="608" y="908" type="curve" smooth="yes"/>
      <point x="716" y="908"/>
      <point x="812" y="864"/>
      <point x="867" y="774" type="curve"/>
    </contour>
    <contour>
      <point x="773" y="697"/>
      <point x="707" y="744"/>
      <point x="611" y="744" type="curve" smooth="yes"/>
      <point x="469" y="744"/>
      <point x="352" y="624"/>
      <point x="333" y="444" type="curve" smooth="yes"/>
      <point x="331" y="427"/>
      <point x="330" y="411"/>
      <point x="330" y="395" type="curve" smooth="yes"/>
      <point x="330" y="228"/>
      <point x="430" y="138"/>
      <point x="559" y="138" type="curve" smooth="yes"/>
      <point x="739" y="138"/>
      <point x="832" y="314"/>
      <point x="853" y="511" type="curve" smooth="yes"/>
      <point x="854" y="528"/>
      <point x="856" y="550"/>
      <point x="856" y="570" type="curve" smooth="yes"/>
      <point x="856" y="579"/>
      <point x="856" y="588"/>
      <point x="855" y="596" type="curve"/>
    </contour>
  </outline>
</glyph>
<glyph name="emptyset" format="1">
  <advance width="1702"/>
  <unicode hex="2205"/>
  <outline>
    <contour>
      <point x="1517" y="1385" type="line"/>
      <point x="1431" y="1459" type="line"/>
      <point x="1280" y="1280" type="line"/>
      <point x="1159" y="1367"/>
      <point x="1011" y="1419"/>
      <point x="850" y="1419" type="curve" smooth="yes"/>
      <point x="451" y="1419"/>
      <point x="123" y="1127"/>
      <point x="123" y="696" type="curve" smooth="yes"/>
      <point x="123" y="473"/>
      <point x="207" y="291"/>
      <point x="342" y="166" type="curve"/>
      <point x="197" y="-7" type="line"/>
      <point x="276" y="-78" type="line"/>
      <point x="426" y="99" type="line"/>
      <point x="546" y="19"/>
      <point x="692" y="-25"/>
      <point x="850" y="-25" type="curve" smooth="yes"/>
      <point x="1251" y="-25"/>
      <point x="1579" y="297"/>
      <point x="1579" y="696" type="curve" smooth="yes"/>
      <point x="1579" y="896"/>
      <point x="1497" y="1076"/>
      <point x="1366" y="1207" type="curve"/>
    </contour>
    <contour>
      <point x="263" y="1042"/>
      <point x="516" y="1294"/>
      <point x="850" y="1294" type="curve" smooth="yes"/>
      <point x="981" y="1294"/>
      <point x="1100" y="1251"/>
      <point x="1196" y="1180" type="curve"/>
      <point x="428" y="268" type="line"/>
      <point x="325" y="372"/>
      <point x="263" y="520"/>
      <point x="263" y="695" type="curve" smooth="yes"/>
    </contour>
    <contour>
      <point x="721" y="100"/>
      <point x="605" y="135"/>
      <point x="511" y="199" type="curve"/>
      <point x="1279" y="1105" type="line"/>
      <point x="1379" y="996"/>
      <point x="1439" y="850"/>
      <point x="1439" y="695" type="curve" smooth="yes"/>
      <point x="1439" y="377"/>
      <point x="1184" y="100"/>
      <point x="849" y="100" type="curve" smooth="yes"/>
    </contour>
  </outline>
</glyph>
<glyph name="uni2206" format="1">
  <advance width="1291"/>
  <unicode hex="2206"/>
  <outline>
    <contour>
      <point x="65" y="0" type="line"/>
      <point x="1226" y="0" type="line"/>
      <point x="1226" y="85" type="line"/>
      <point x="753" y="1537" type="line"/>
      <point x="577" y="1537" type="line"/>
      <point x="65" y="85" type="line"/>
    </contour>
    <contour>
      <point x="249" y="193" type="line"/>
      <point x="610" y="1261" type="line"/>
      <point x="642" y="1379" type="line"/>
      <point x="676" y="1261" type="line"/>
      <point x="1018" y="193" type="line"/>
    </contour>
  </outline>
</glyph>
<glyph name="product" format="1">
  <advance width="1373"/>
  <unicode hex="220F"/>
  <outline>
    <contour>
      <point x="1017" y="1300" type="line"/>
      <point x="1017" y="0" type="line"/>
      <point x="1237" y="0" type="line"/>
      <point x="1237" y="1464" type="line"/>
      <point x="136" y="1464" type="line"/>
      <point x="136" y="0" type="line"/>
      <point x="356" y="0" type="line"/>
      <point x="356" y="1300" type="line"/>
    </contour>
  </outline>
</glyph>
<glyph name="summation" format="1">
  <advance width="1229"/>
  <unicode hex="2211"/>
  <outline>
    <contour>
      <point x="161" y="-18" type="line" smooth="yes"/>
      <point x="1142" y="-18" type="line" smooth="yes"/>
      <point x="1142" y="147" type="line" smooth="yes"/>
      <point x="371" y="147" type="line" smooth="yes"/>
      <point x="905" y="680" type="line" smooth="yes"/>
      <point x="905" y="789" type="line" smooth="yes"/>
      <point x="374" y="1332" type="line" smooth="yes"/>
      <point x="1142" y="1332" type="line" smooth="yes"/>
      <point x="1142" y="1491" type="line" smooth="yes"/>
      <point x="161" y="1491" type="line" smooth="yes"/>
      <point x="161" y="1325" type="line" smooth="yes"/>
      <point x="719" y="737" type="line" smooth="yes"/>
      <point x="161" y="165" type="line" smooth="yes"/>
    </contour>
  </outline>
</glyph>
<glyph name="radical" format="1">
  <advance width="1373"/>
  <unicode hex="221A"/>
  <outline>
    <contour>
      <point x="493" y="0" type="line"/>
      <point x="639" y="0" type="line"/>
      <point x="1263" y="1464" type="line"/>
      <point x="1045" y="1464" type="line"/>
      <point x="549" y="236" type="line"/>
      <point x="324" y="643" type="line"/>
      <point x="110" y="643" type="line"/>
    </contour>
  </outline>
</glyph>
<glyph name="infinity" format="1">
  <advance width="1601"/>
  <unicode hex="221E"/>
  <outline>
    <contour>
      <point x="1432" y="1163"/>
      <point x="1556" y="951"/>
      <point x="1556" y="738" type="curve" smooth="yes"/>
      <point x="1556" y="519"/>
      <point x="1426" y="298"/>
      <point x="1168" y="299" type="curve" smooth="yes"/>
      <point x="1003" y="299"/>
      <point x="843" y="394"/>
      <point x="767" y="537" type="curve"/>
      <point x="711" y="394"/>
      <point x="576" y="300"/>
      <point x="432" y="300" type="curve" smooth="yes"/>
      <point x="169" y="300"/>
      <point x="37" y="515"/>
      <point x="37" y="731" type="curve" smooth="yes"/>
      <point x="37" y="945"/>
      <point x="169" y="1160"/>
      <point x="432" y="1160" type="curve" smooth="yes"/>
      <point x="580" y="1160"/>
      <point x="723" y="1074"/>
      <point x="789" y="946" type="curve"/>
      <point x="877" y="1082"/>
      <point x="1034" y="1171"/>
      <point x="1182" y="1168" type="curve" smooth="yes"/>
    </contour>
    <contour>
      <point x="911" y="624"/>
      <point x="1036" y="502"/>
      <point x="1165" y="502" type="curve" smooth="yes"/>
      <point x="1308" y="502"/>
      <point x="1379" y="610"/>
      <point x="1379" y="721" type="curve" smooth="yes"/>
      <point x="1379" y="892"/>
      <point x="1242" y="952"/>
      <point x="1142" y="952" type="curve" smooth="yes"/>
      <point x="1029" y="952"/>
      <point x="915" y="896"/>
      <point x="853" y="808" type="curve"/>
    </contour>
    <contour>
      <point x="650" y="845"/>
      <point x="539" y="951"/>
      <point x="429" y="951" type="curve" smooth="yes"/>
      <point x="285" y="951"/>
      <point x="213" y="841"/>
      <point x="213" y="730" type="curve" smooth="yes"/>
      <point x="213" y="618"/>
      <point x="286" y="506"/>
      <point x="432" y="506" type="curve" smooth="yes"/>
      <point x="535" y="506"/>
      <point x="645" y="578"/>
      <point x="706" y="685" type="curve"/>
    </contour>
  </outline>
</glyph>
<glyph name="integral" format="1">
  <advance width="823"/>
  <unicode hex="222B"/>
  <outline>
    <contour>
      <point x="517" y="1474"/>
      <point x="407" y="1417"/>
      <point x="383" y="1135" type="curve" smooth="yes"/>
      <point x="288" y="39" type="line" smooth="yes"/>
      <point x="276" y="-100"/>
      <point x="260" y="-130"/>
      <point x="174" y="-130" type="curve" smooth="yes"/>
      <point x="142" y="-130"/>
      <point x="102" y="-118"/>
      <point x="71" y="-101" type="curve"/>
      <point x="5" y="-242" type="line"/>
      <point x="47" y="-266"/>
      <point x="127" y="-292"/>
      <point x="185" y="-292" type="curve" smooth="yes"/>
      <point x="365" y="-292"/>
      <point x="475" y="-235"/>
      <point x="499" y="47" type="curve" smooth="yes"/>
      <point x="594" y="1143" type="line" smooth="yes"/>
      <point x="606" y="1282"/>
      <point x="622" y="1312"/>
      <point x="708" y="1312" type="curve" smooth="yes"/>
      <point x="740" y="1312"/>
      <point x="780" y="1300"/>
      <point x="811" y="1283" type="curve"/>
      <point x="877" y="1424" type="line"/>
      <point x="835" y="1448"/>
      <point x="755" y="1474"/>
      <point x="697" y="1474" type="curve" smooth="yes"/>
    </contour>
  </outline>
</glyph>
<glyph name="approxequal" format="1">
  <advance width="1070"/>
  <unicode hex="2248"/>
  <outline>
    <contour>
      <point x="855" y="403" type="curve" smooth="yes"/>
      <point x="962" y="398"/>
      <point x="1011" y="457"/>
      <point x="1020" y="649" type="curve"/>
      <point x="901" y="649" type="line"/>
      <point x="896" y="571"/>
      <point x="864" y="545"/>
      <point x="811" y="545" type="curve" smooth="yes"/>
      <point x="704" y="545"/>
      <point x="510" y="654"/>
      <point x="285" y="663" type="curve" smooth="yes"/>
      <point x="193" y="667"/>
      <point x="115" y="647"/>
      <point x="100" y="410" type="curve"/>
      <point x="218" y="410" type="line"/>
      <point x="217" y="494"/>
      <point x="251" y="522"/>
      <point x="310" y="522" type="curve" smooth="yes"/>
      <point x="425" y="522"/>
      <point x="634" y="414"/>
    </contour>
    <contour>
      <point x="806" y="738" type="curve" smooth="yes"/>
      <point x="913" y="733"/>
      <point x="962" y="792"/>
      <point x="971" y="984" type="curve"/>
      <point x="852" y="984" type="line"/>
      <point x="847" y="906"/>
      <point x="815" y="880"/>
      <point x="762" y="880" type="curve" smooth="yes"/>
      <point x="655" y="880"/>
      <point x="461" y="989"/>
      <point x="236" y="998" type="curve" smooth="yes"/>
      <point x="144" y="1002"/>
      <point x="66" y="982"/>
      <point x="51" y="745" type="curve"/>
      <point x="169" y="745" type="line"/>
      <point x="168" y="829"/>
      <point x="202" y="857"/>
      <point x="261" y="857" type="curve" smooth="yes"/>
      <point x="376" y="857"/>
      <point x="585" y="749"/>
    </contour>
  </outline>
</glyph>
<glyph name="notequal" format="1">
  <advance width="916"/>
  <unicode hex="2260"/>
  <outline>
    <contour>
      <point x="868" y="755" type="line"/>
      <point x="868" y="902" type="line"/>
      <point x="617" y="902" type="line"/>
      <point x="717" y="1180" type="line"/>
      <point x="543" y="1219" type="line"/>
      <point x="434" y="902" type="line"/>
      <point x="48" y="902" type="line"/>
      <point x="48" y="755" type="line"/>
      <point x="383" y="755" type="line"/>
      <point x="348" y="653" type="line"/>
      <point x="48" y="653" type="line"/>
      <point x="48" y="506" type="line"/>
      <point x="297" y="506" type="line"/>
      <point x="204" y="236" type="line"/>
      <point x="364" y="197" type="line"/>
      <point x="475" y="506" type="line"/>
      <point x="868" y="506" type="line"/>
      <point x="868" y="653" type="line"/>
      <point x="528" y="653" type="line"/>
      <point x="564" y="755" type="line"/>
    </contour>
  </outline>
</glyph>
<glyph name="lessequal" format="1">
  <advance width="1051"/>
  <unicode hex="2264"/>
  <outline>
    <contour>
      <point x="998" y="440" type="line"/>
      <point x="998" y="252" type="line"/>
      <point x="49" y="528" type="line"/>
      <point x="49" y="722" type="line"/>
      <point x="998" y="1023" type="line"/>
      <point x="998" y="794" type="line"/>
      <point x="288" y="625" type="line"/>
    </contour>
    <contour>
      <point x="46" y="0" type="line"/>
      <point x="1008" y="0" type="line"/>
      <point x="1008" y="135" type="line"/>
      <point x="46" y="135" type="line"/>
    </contour>
  </outline>
</glyph>
<glyph name="greaterequal" format="1">
  <advance width="1051"/>
  <unicode hex="2265"/>
  <outline>
    <contour>
      <point x="49" y="825" type="line"/>
      <point x="49" y="1033" type="line"/>
      <point x="998" y="717" type="line"/>
      <point x="998" y="523" type="line"/>
      <point x="49" y="252" type="line"/>
      <point x="49" y="461" type="line"/>
      <point x="759" y="631" type="line"/>
    </contour>
    <contour>
      <point x="52" y="0" type="line"/>
      <point x="1014" y="0" type="line"/>
      <point x="1014" y="135" type="line"/>
      <point x="52" y="135" type="line"/>
    </contour>
  </outline>
</glyph>
<glyph name="lozenge" format="1">
  <advance width="1053"/>
  <unicode hex="25CA"/>
  <outline>
    <contour>
      <point x="590" y="0" type="line"/>
      <point x="1023" y="699" type="line"/>
      <point x="590" y="1398" type="line"/>
      <point x="451" y="1398" type="line"/>
      <point x="30" y="699" type="line"/>
      <point x="451" y="0" type="line"/>
    </contour>
    <contour>
      <point x="528" y="1178" type="line"/>
      <point x="812" y="699" type="line"/>
      <point x="528" y="220" type="line"/>
      <point x="247" y="699" type="line"/>
    </contour>
  </outline>
</glyph>
<glyph name="dotlessj" format="1">
  <advance width="513"/>
  <outline>
    <contour>
      <point x="134" y="-380" type="curve" smooth="yes"/>
      <point x="323" y="-380"/>
      <point x="407" y="-304"/>
      <point x="407" y="-42" type="curve" smooth="yes"/>
      <point x="407" y="1023" type="line"/>
      <point x="195" y="1023" type="line"/>
      <point x="195" y="-91" type="line" smooth="yes"/>
      <point x="195" y="-177"/>
      <point x="155" y="-207"/>
      <point x="100" y="-207" type="curve" smooth="yes"/>
      <point x="64" y="-207"/>
      <point x="22" y="-195"/>
      <point x="-20" y="-176" type="curve"/>
      <point x="-61" y="-334" type="line"/>
      <point x="-13" y="-362"/>
      <point x="63" y="-380"/>
    </contour>
    <contour>
      <point x="302" y="1023" type="move" name="top"/>
    </contour>
  </outline>
</glyph>
<glyph name="lc_ascender_stem_2" format="1">
  <advance width="1078"/>
  <outline>
    <contour>
      <point x="87" y="0" type="line"/>
      <point x="250" y="0" type="line"/>
      <point x="250" y="0"/>
      <point x="299" y="735"/>
      <point x="299" y="735" type="curve"/>
      <point x="299" y="1474" type="line"/>
      <point x="87" y="1474" type="line"/>
    </contour>
  </outline>
</glyph>
<glyph name="lc_curved_stem" format="1">
  <advance width="1086"/>
  <outline>
    <contour>
      <point x="798" y="0" type="line"/>
      <point x="1010" y="0" type="line"/>
      <point x="1010" y="595" type="line" smooth="yes"/>
      <point x="1010" y="801"/>
      <point x="969" y="1044"/>
      <point x="646" y="1044" type="curve" smooth="yes"/>
      <point x="393" y="1044"/>
      <point x="274" y="884"/>
      <point x="224" y="624" type="curve"/>
      <point x="224" y="624"/>
      <point x="325" y="491"/>
      <point x="325" y="491" type="curve" smooth="yes"/>
      <point x="325" y="695"/>
      <point x="381" y="896"/>
      <point x="600" y="896" type="curve" smooth="yes"/>
      <point x="748" y="896"/>
      <point x="798" y="801"/>
      <point x="798" y="602" type="curve" smooth="yes"/>
    </contour>
    <contour>
      <point x="683" y="1163" type="move" name="top"/>
    </contour>
  </outline>
</glyph>
<glyph name="lc_descender_stem" format="1">
  <advance width="1057"/>
  <outline>
    <contour>
      <point x="57" y="-370" type="line"/>
      <point x="269" y="-370" type="line"/>
      <point x="269" y="-370"/>
      <point x="269" y="758"/>
      <point x="269" y="758" type="curve"/>
      <point x="243" y="1023" type="line"/>
      <point x="57" y="1023" type="line"/>
    </contour>
  </outline>
</glyph>
<glyph name="lc_descender_stem_2" format="1">
  <advance width="1057"/>
  <outline>
    <contour>
      <point x="57" y="-350" type="curve"/>
      <point x="269" y="-350" type="line"/>
      <point x="269" y="1023" type="line"/>
      <point x="83" y="1023" type="line"/>
      <point x="57" y="758" type="line"/>
      <point x="57" y="758"/>
      <point x="57" y="-350"/>
    </contour>
  </outline>
</glyph>
<glyph name="lc_main_stem" format="1">
  <advance width="1086"/>
  <outline>
    <contour>
      <point x="98" y="0" type="line"/>
      <point x="310" y="0" type="line"/>
      <point x="310" y="0"/>
      <point x="310" y="1023"/>
      <point x="310" y="1023" type="curve"/>
      <point x="98" y="1023" type="line"/>
    </contour>
  </outline>
</glyph>
<glyph name="middot" format="1">
  <advance width="600"/>
  <outline>
    <contour>
      <point x="175" y="526" type="line"/>
      <point x="435" y="526" type="line"/>
      <point x="435" y="766" type="line"/>
      <point x="175" y="766" type="line"/>
    </contour>
  </outline>
</glyph>
<glyph name="uc_main_stem" format="1">
  <advance width="1457"/>
  <outline>
    <contour>
      <point x="324" y="0" type="curve"/>
      <point x="104" y="0" type="line"/>
      <point x="104" y="1464" type="line"/>
      <point x="324" y="1464" type="line"/>
      <point x="324" y="1464"/>
      <point x="324" y="0"/>
    </contour>
  </outline>
</glyph>
